<svg width="64" height="64" viewBox="0 0 64 64" fill="none" xmlns="http://www.w3.org/2000/svg">
<path fill-rule="evenodd" clip-rule="evenodd" d="M44.6103 32.0044C44.6098 32.2713 44.5762 32.5371 44.5102 32.7958L46.1582 34.4545C49.3372 37.6864 49.3147 42.8744 46.1078 46.0786C42.9008 49.2828 37.7083 49.3053 34.4738 46.129L32.8396 44.4962C32.303 44.6384 31.7385 44.6384 31.2019 44.4962L29.578 46.1204C26.3514 49.3447 21.1198 49.3451 17.8927 46.1212C14.6657 42.8974 14.6653 37.6701 17.8918 34.4459L19.7176 32.62C19.6359 32.2101 19.6359 31.7883 19.7176 31.3785L17.8936 29.5543C15.8064 27.4686 14.9914 24.4287 15.7556 21.5797C16.5198 18.7308 18.7472 16.5057 21.5987 15.7425C24.4502 14.9793 27.4925 15.794 29.5798 17.8798L31.0103 19.3091C31.6676 19.095 32.3765 19.0992 33.0311 19.3212L34.4755 17.8781C37.7101 14.7018 42.9026 14.7243 46.1095 17.9285C49.3165 21.1327 49.339 26.3207 46.16 29.5526L44.5068 31.2044C44.5754 31.4655 44.6103 31.7344 44.6103 32.0044ZM36.708 20.121L35.155 21.6728C35.2071 21.9037 35.2338 22.1396 35.2343 22.3763C35.2346 22.7137 35.181 23.0489 35.0755 23.3694L40.5942 28.8782C40.8524 28.8115 41.118 28.7779 41.3846 28.7782C41.7026 28.7778 42.019 28.8243 42.3233 28.9161L43.9162 27.3229C45.8501 25.3248 45.8235 22.1464 43.8563 20.1809C41.889 18.2154 38.7079 18.1887 36.708 20.121ZM35.1311 40.5734L40.579 35.1283C41.154 35.2786 41.7595 35.2648 42.3271 35.0887L43.9216 36.6819C45.8555 38.6801 45.8289 41.8585 43.8616 43.824C41.8945 45.7895 38.7134 45.8161 36.7135 43.8838L35.1052 42.2752C35.1906 41.9815 35.2342 41.6774 35.2346 41.3717C35.2347 41.1022 35.1998 40.834 35.1311 40.5734ZM32.9408 38.2871L38.2903 32.9421L38.292 32.9456C38.1045 32.332 38.1045 31.6764 38.292 31.0628L32.744 25.5194C32.2697 25.6336 31.7753 25.6365 31.2996 25.528L25.9207 30.8989C26.1808 31.6111 26.1808 32.3921 25.9207 33.1042L31.0977 38.2768C31.7 38.101 32.3405 38.1045 32.9408 38.2871ZM28.9455 23.4044L28.9429 23.4069C28.7502 22.8381 28.7224 22.2263 28.8627 21.6422L27.3389 20.1198C25.339 18.1875 22.1579 18.2141 20.1907 20.1796C18.2235 22.1451 18.1968 25.3235 20.1308 27.3217L21.7891 28.977C22.3408 28.7734 22.9378 28.7256 23.5149 28.839L28.9429 23.4069L28.9438 23.4095L28.9455 23.4044ZM23.5148 35.1702C22.9381 35.2836 22.3413 35.237 21.7891 35.0357L20.1308 36.6824C18.1968 38.6806 18.2235 41.8589 20.1907 43.8244C22.1579 45.79 25.339 45.8166 27.3389 43.8843L28.9127 42.3101C28.8207 42.006 28.7742 41.6899 28.7746 41.3721C28.7744 41.0903 28.8115 40.8098 28.8851 40.5377L23.5148 35.1702Z" fill="#2665F1"/>
</svg>
