<svg width="64" height="64" viewBox="0 0 64 64" fill="none" xmlns="http://www.w3.org/2000/svg">
<path d="M64 0H0V64H64V0Z" fill="white"/>
<path d="M30.0849 17.6509L16.7228 23.0802C15.9793 23.3821 15.9878 24.4189 16.7356 24.7101L30.1532 29.9346C31.3318 30.3933 32.6449 30.3933 33.8236 29.9346L47.2423 24.7101C47.99 24.4189 47.9975 23.3821 47.254 23.0802L33.8918 17.6509C32.6737 17.1559 31.3041 17.1559 30.0849 17.6509Z" fill="#FCB400"/>
<path d="M33.1766 32.7879V45.8407C33.1766 46.4604 33.8145 46.886 34.4022 46.6578L49.3537 40.9586C49.5201 40.8935 49.663 40.7815 49.7643 40.6354C49.8646 40.4903 49.919 40.3175 49.919 40.1415V27.0898C49.919 26.469 49.2811 26.0434 48.6934 26.2727L33.7419 31.9708C33.5755 32.0359 33.4326 32.149 33.3313 32.294C33.231 32.4402 33.1766 32.6119 33.1766 32.7879Z" fill="#18BFFF"/>
<path d="M29.6855 33.461L25.2482 35.5644L24.798 35.7788L15.4306 40.1852C14.8375 40.4668 14.0791 40.0412 14.0791 39.3938V27.1442C14.0791 26.9095 14.2018 26.7068 14.366 26.5554C14.4332 26.4892 14.509 26.4327 14.5922 26.3879C14.8162 26.2556 15.1351 26.2204 15.4071 26.326L29.6108 31.8524C30.333 32.134 30.3895 33.1271 29.6855 33.461Z" fill="#F82B60"/>
<path d="M29.6855 33.461L25.2482 35.5644L14.366 26.5554C14.4332 26.4892 14.509 26.4327 14.5922 26.3879C14.8162 26.2556 15.1351 26.2204 15.4071 26.326L29.6108 31.8524C30.333 32.134 30.3895 33.1271 29.6855 33.461Z" fill="black" fill-opacity="0.25"/>
</svg>
