<svg width="64" height="64" viewBox="0 0 64 64" fill="none" xmlns="http://www.w3.org/2000/svg">
<path d="M43.6963 19.8127H38.2662L41.0818 24.6283L43.6963 19.8127ZM51.2436 46.9967L31.9658 14.9967L12.7529 46.9297H23.0432C24.416 46.9297 25.7667 46.5837 26.9608 45.928C28.2497 45.2196 29.2229 44.1928 29.9836 42.948C30.8729 41.4918 31.7366 40.0187 32.612 38.5538L34.8515 34.8039L31.9632 29.9741L30.6826 32.0307C29.2229 34.4661 27.8414 36.9578 26.3289 39.3604C25.5682 40.5653 24.5755 41.7037 23.1102 41.997C22.888 42.0402 22.6626 42.0654 22.4364 42.0722C22.1345 42.0835 21.8321 42.0778 21.5333 42.0778L31.9658 24.3493L45.3628 46.9967H51.2436Z" fill="black"/>
</svg>
