<svg width="64" height="64" viewBox="0 0 64 64" fill="none" xmlns="http://www.w3.org/2000/svg">
<g clip-path="url(#clip0_4739_38436)">
<path d="M49.9098 37.88L46.8498 33.02L46.5498 32.6C46.0698 31.88 45.2898 31.46 44.4498 31.46L39.5298 31.4L39.2298 32L33.3498 41.42L33.0498 41.96L35.5098 45.92C35.9898 46.64 36.7698 47.06 37.6098 47.06H44.5098C45.3498 47.06 46.1898 46.64 46.6098 45.92L46.8498 45.56L49.9098 40.64C50.3898 39.74 50.3898 38.72 49.9098 37.88ZM48.9498 39.98L45.8898 44.9C45.8898 44.9 45.8898 44.96 45.8298 44.96C45.7098 45.08 45.5898 45.08 45.5298 45.08C45.4698 45.08 45.2898 45.08 45.1698 44.9L42.1098 39.98C42.0498 39.92 42.0498 39.86 41.9898 39.8C41.9898 39.74 41.9298 39.68 41.9298 39.62C41.8698 39.38 41.8698 39.14 41.9298 38.84C41.9898 38.72 41.9898 38.6 42.1098 38.48L45.1698 33.62C45.2298 33.5 45.3498 33.44 45.4098 33.44C45.4698 33.44 45.4698 33.44 45.4698 33.44C45.4698 33.44 45.4698 33.44 45.5298 33.44C45.5898 33.44 45.7698 33.44 45.8898 33.62L48.9498 38.48C49.2498 38.96 49.2498 39.5 48.9498 39.98Z" fill="black"/>
<path d="M40.85 26.06C41.33 25.28 41.33 24.2 40.85 23.42L37.79 18.56L37.55 18.14C37.07 17.42 36.29 17 35.45 17H28.55C27.71 17 26.93 17.42 26.45 18.14L14.09 37.94C13.85 38.3 13.73 38.78 13.73 39.2C13.73 39.68 13.85 40.1 14.09 40.52L17.39 45.8C17.87 46.58 18.65 47 19.55 47H26.45C27.29 47 28.13 46.58 28.55 45.86L28.79 45.44L31.25 41.48L38.51 29.84L40.85 26.06ZM40.13 24.8C40.13 25.04 40.07 25.28 39.89 25.52L27.83 44.84C27.71 45.02 27.53 45.02 27.47 45.02C27.41 45.02 27.23 45.02 27.11 44.84L24.05 39.92C23.75 39.5 23.75 38.9 24.05 38.48L36.17 19.16C36.29 18.98 36.47 18.98 36.53 18.98C36.59 18.98 36.77 18.98 36.89 19.16L39.95 24.02C40.07 24.26 40.13 24.5 40.13 24.8Z" fill="black"/>
</g>
<defs>
<clipPath id="clip0_4739_38436">
<rect width="36.54" height="30" fill="white" transform="translate(13.73 17)"/>
</clipPath>
</defs>
</svg>
