<?xml version="1.0" encoding="UTF-8"?>
<svg version="1.1" xmlns="http://www.w3.org/2000/svg" width="25" height="25" viewBox="0 0 225 225">
<path d="M0 0 C74.25 0 148.5 0 225 0 C225 74.25 225 148.5 225 225 C150.75 225 76.5 225 0 225 C0 150.75 0 76.5 0 0 Z " fill="#000000" transform="translate(0,0)"/>
<path d="M0 0 C15.81240189 0 28.44163902 2.71471817 40.50390625 13.41015625 C49.71918099 23.20288946 56.13654749 34.71007456 56.11352539 48.24707031 C56.11367142 48.96941864 56.11381744 49.69176697 56.1139679 50.43600464 C56.11327284 52.81674228 56.1054995 55.19740108 56.09765625 57.578125 C56.09579063 59.23150591 56.0943674 60.88488738 56.09336853 62.53826904 C56.08955473 66.88494397 56.07973415 71.23158537 56.06866455 75.57824707 C56.0566251 80.79621691 56.05204277 86.01419797 56.04621124 91.23217773 C56.03652179 99.15480847 56.01735728 107.07736564 56 115 C37.52 115 19.04 115 0 115 C0 77.05 0 39.1 0 0 Z " fill="#FEFEFE" transform="translate(120,55)"/>
<path d="M0 0 C0 17.82 0 35.64 0 54 C-21.12 54 -42.24 54 -64 54 C-64 39.38906261 -58.53268261 25.89729374 -48.44921875 15.19921875 C-33.58529614 1.85250674 -20.45587435 0 0 0 Z " fill="#FCFCFC" transform="translate(113,116)"/>
<path d="M0 0 C3.81192001 2.77070112 6.235433 5.75570614 8.53125 9.83984375 C9.459375 11.38671875 9.459375 11.38671875 10.40625 12.96484375 C13.06479448 19.90571436 12.70045418 28.96135616 9.90625 35.77734375 C6.00046988 43.15036025 0.87002982 48.70301526 -7.1953125 51.421875 C-14.87046345 52.83294227 -25.01335259 53.40797886 -31.796875 49.17578125 C-37.62177883 44.52130202 -43.0179167 39.419197 -44.46875 31.83984375 C-45.72190911 14.45673669 -45.72190911 14.45673669 -41.0859375 7.69921875 C-29.99727364 -5.05006627 -15.32140427 -8.75214625 0 0 Z " fill="#FCFCFC" transform="translate(101.46875,59.16015625)"/>
</svg>
