<svg width="64" height="64" viewBox="0 0 64 64" fill="none" xmlns="http://www.w3.org/2000/svg">
<mask id="mask0_4739_72443" style="mask-type:luminance" maskUnits="userSpaceOnUse" x="19" y="14" width="26" height="36">
<path d="M35.1792 14.515H21.668C20.3566 14.515 19.2837 15.5879 19.2837 16.8993V47.1008C19.2837 48.4122 20.3566 49.4851 21.668 49.4851H42.3322C43.6436 49.4851 44.7165 48.4122 44.7165 47.1008V24.0523L35.1792 14.515Z" fill="white"/>
</mask>
<g mask="url(#mask0_4739_72443)">
<path d="M35.1792 14.515H21.668C20.3566 14.515 19.2837 15.5879 19.2837 16.8993V47.1008C19.2837 48.4122 20.3566 49.4851 21.668 49.4851H42.3322C43.6436 49.4851 44.7165 48.4122 44.7165 47.1008V24.0523L39.1531 20.0784L35.1792 14.515Z" fill="#0F9D58"/>
</g>
<mask id="mask1_4739_72443" style="mask-type:luminance" maskUnits="userSpaceOnUse" x="19" y="14" width="26" height="36">
<path d="M35.1792 14.515H21.668C20.3566 14.515 19.2837 15.5879 19.2837 16.8993V47.1008C19.2837 48.4122 20.3566 49.4851 21.668 49.4851H42.3322C43.6436 49.4851 44.7165 48.4122 44.7165 47.1008V24.0523L35.1792 14.515Z" fill="white"/>
</mask>
<g mask="url(#mask1_4739_72443)">
<path d="M25.6421 31.6027V43.1269H38.3585V31.6027H25.6421ZM31.2055 41.5374H27.2316V39.5504H31.2055V41.5374ZM31.2055 38.3583H27.2316V36.3713H31.2055V38.3583ZM31.2055 35.1792H27.2316V33.1922H31.2055V35.1792ZM36.769 41.5374H32.7951V39.5504H36.769V41.5374ZM36.769 38.3583H32.7951V36.3713H36.769V38.3583ZM36.769 35.1792H32.7951V33.1922H36.769V35.1792Z" fill="#F1F1F1"/>
</g>
<mask id="mask2_4739_72443" style="mask-type:luminance" maskUnits="userSpaceOnUse" x="19" y="14" width="26" height="36">
<path d="M35.1792 14.515H21.668C20.3566 14.515 19.2837 15.5879 19.2837 16.8993V47.1008C19.2837 48.4122 20.3566 49.4851 21.668 49.4851H42.3322C43.6436 49.4851 44.7165 48.4122 44.7165 47.1008V24.0523L35.1792 14.515Z" fill="white"/>
</mask>
<g mask="url(#mask2_4739_72443)">
<path d="M35.8765 23.3549L44.7164 32.1928V24.0523L35.8765 23.3549Z" fill="url(#paint0_linear_4739_72443)"/>
</g>
<mask id="mask3_4739_72443" style="mask-type:luminance" maskUnits="userSpaceOnUse" x="19" y="14" width="26" height="36">
<path d="M35.1792 14.515H21.668C20.3566 14.515 19.2837 15.5879 19.2837 16.8993V47.1008C19.2837 48.4122 20.3566 49.4851 21.668 49.4851H42.3322C43.6436 49.4851 44.7165 48.4122 44.7165 47.1008V24.0523L35.1792 14.515Z" fill="white"/>
</mask>
<g mask="url(#mask3_4739_72443)">
<path d="M35.1792 14.515V21.6679C35.1792 22.9853 36.2462 24.0523 37.5635 24.0523H44.7165L35.1792 14.515Z" fill="#87CEAC"/>
</g>
<mask id="mask4_4739_72443" style="mask-type:luminance" maskUnits="userSpaceOnUse" x="19" y="14" width="26" height="36">
<path d="M35.1792 14.515H21.668C20.3566 14.515 19.2837 15.5879 19.2837 16.8993V47.1008C19.2837 48.4122 20.3566 49.4851 21.668 49.4851H42.3322C43.6436 49.4851 44.7165 48.4122 44.7165 47.1008V24.0523L35.1792 14.515Z" fill="white"/>
</mask>
<g mask="url(#mask4_4739_72443)">
<path d="M21.668 14.515C20.3566 14.515 19.2837 15.5879 19.2837 16.8993V17.098C19.2837 15.7866 20.3566 14.7136 21.668 14.7136H35.1792V14.515H21.668Z" fill="white" fill-opacity="0.2"/>
</g>
<mask id="mask5_4739_72443" style="mask-type:luminance" maskUnits="userSpaceOnUse" x="19" y="14" width="26" height="36">
<path d="M35.1792 14.515H21.668C20.3566 14.515 19.2837 15.5879 19.2837 16.8993V47.1008C19.2837 48.4122 20.3566 49.4851 21.668 49.4851H42.3322C43.6436 49.4851 44.7165 48.4122 44.7165 47.1008V24.0523L35.1792 14.515Z" fill="white"/>
</mask>
<g mask="url(#mask5_4739_72443)">
<path d="M42.3322 49.2864H21.668C20.3566 49.2864 19.2837 48.2135 19.2837 46.9021V47.1008C19.2837 48.4122 20.3566 49.4851 21.668 49.4851H42.3322C43.6436 49.4851 44.7165 48.4122 44.7165 47.1008V46.9021C44.7165 48.2135 43.6436 49.2864 42.3322 49.2864Z" fill="#263238" fill-opacity="0.2"/>
</g>
<mask id="mask6_4739_72443" style="mask-type:luminance" maskUnits="userSpaceOnUse" x="19" y="14" width="26" height="36">
<path d="M35.1792 14.515H21.668C20.3566 14.515 19.2837 15.5879 19.2837 16.8993V47.1008C19.2837 48.4122 20.3566 49.4851 21.668 49.4851H42.3322C43.6436 49.4851 44.7165 48.4122 44.7165 47.1008V24.0523L35.1792 14.515Z" fill="white"/>
</mask>
<g mask="url(#mask6_4739_72443)">
<path d="M37.5635 24.0523C36.2462 24.0523 35.1792 22.9853 35.1792 21.668V21.8667C35.1792 23.184 36.2462 24.251 37.5635 24.251H44.7165V24.0523H37.5635Z" fill="#263238" fill-opacity="0.1"/>
</g>
<path d="M35.1792 14.515H21.668C20.3566 14.515 19.2837 15.5879 19.2837 16.8993V47.1008C19.2837 48.4122 20.3566 49.4851 21.668 49.4851H42.3322C43.6436 49.4851 44.7165 48.4122 44.7165 47.1008V24.0523L35.1792 14.515Z" fill="url(#paint1_radial_4739_72443)"/>
<defs>
<linearGradient id="paint0_linear_4739_72443" x1="477.919" y1="99.2381" x2="477.919" y2="907.269" gradientUnits="userSpaceOnUse">
<stop stop-color="#263238" stop-opacity="0.2"/>
<stop offset="1" stop-color="#263238" stop-opacity="0.02"/>
</linearGradient>
<radialGradient id="paint1_radial_4739_72443" cx="0" cy="0" r="1" gradientUnits="userSpaceOnUse" gradientTransform="translate(99.8562 83.6313) scale(4101.01 4101.01)">
<stop stop-color="white" stop-opacity="0.1"/>
<stop offset="1" stop-color="white" stop-opacity="0"/>
</radialGradient>
</defs>
</svg>
