<svg width="64" height="64" viewBox="0 0 64 64" fill="none" xmlns="http://www.w3.org/2000/svg">
<path d="M64 0H0V64H64V0Z" fill="white"/>
<path d="M40.4879 26.3396V22.3918C41.01 22.148 41.4522 21.761 41.7629 21.2759C42.0736 20.7908 42.2398 20.2275 42.2425 19.6517V19.561C42.2425 17.882 40.8801 16.5209 39.1995 16.5209H39.1085C38.3014 16.5209 37.5275 16.8412 36.9568 17.4114C36.386 17.9815 36.0655 18.7547 36.0655 19.561V19.6517C36.0682 20.2275 36.2344 20.7908 36.5451 21.2759C36.8557 21.761 37.2979 22.148 37.8201 22.3918V26.3396C36.3193 26.5692 34.9056 27.1909 33.7227 28.1417L22.8845 19.7088C22.9618 19.4301 23.0021 19.1435 23.0066 18.8559C23.0079 18.1783 22.8081 17.5156 22.4323 16.9516C22.0566 16.3876 21.5219 15.9475 20.8958 15.6871C20.2696 15.4267 19.5803 15.3576 18.9149 15.4887C18.2495 15.6197 17.6379 15.9449 17.1576 16.4233C16.6772 16.9015 16.3497 17.5114 16.2163 18.1757C16.083 18.84 16.1499 19.5289 16.4085 20.1552C16.6671 20.7815 17.1058 21.3172 17.6692 21.6944C18.2326 22.0716 18.8953 22.2734 19.5735 22.2742C20.1668 22.2714 20.7491 22.1132 21.262 21.8153L31.9344 30.1117C30.9756 31.5586 30.4754 33.2605 30.499 34.9956C30.5226 36.7304 31.0689 38.4183 32.0666 39.8387L28.8206 43.0824C28.5582 42.9986 28.2849 42.9541 28.0094 42.9503C27.4527 42.9507 26.9086 43.116 26.4459 43.4254C25.9832 43.7345 25.6227 44.174 25.4099 44.6878C25.197 45.2017 25.1414 45.7671 25.2502 46.3125C25.3589 46.8579 25.627 47.3588 26.0206 47.7521C26.4143 48.1455 26.9158 48.4132 27.4618 48.5218C28.0078 48.6304 28.5737 48.5749 29.0881 48.3623C29.6026 48.1497 30.0423 47.7896 30.3519 47.3272C30.6615 46.8651 30.8269 46.3215 30.8273 45.7655C30.8237 45.4902 30.7792 45.2171 30.6951 44.9551L33.9063 41.746C34.9535 42.5513 36.1712 43.1066 37.4664 43.3691C38.7615 43.6317 40.0997 43.5945 41.3783 43.2607C42.6569 42.9267 43.8419 42.3049 44.8429 41.443C45.8437 40.5808 46.6338 39.5013 47.1524 38.287C47.6711 37.0727 47.9048 35.756 47.8353 34.4378C47.7661 33.1193 47.3956 31.8343 46.7523 30.6811C46.109 29.5279 45.21 28.537 44.1241 27.7845C43.0384 27.032 41.7945 26.5377 40.4879 26.3396ZM39.1569 39.3237C38.5633 39.34 37.9726 39.2375 37.4196 39.0217C36.8665 38.806 36.3623 38.4819 35.9367 38.0684C35.5113 37.6549 35.1728 37.1603 34.9419 36.6137C34.7109 36.0674 34.592 35.4803 34.592 34.8874C34.592 34.2942 34.7109 33.7071 34.9419 33.1608C35.1728 32.6144 35.5113 32.1199 35.9367 31.7062C36.3623 31.2926 36.8665 30.9685 37.4196 30.7529C37.9726 30.5373 38.5633 30.4346 39.1569 30.4509C40.3071 30.4911 41.3967 30.9757 42.1964 31.8026C42.996 32.6295 43.4434 33.7342 43.444 34.884C43.4445 36.0338 42.9985 37.139 42.1995 37.9667C41.4007 38.7944 40.3114 39.28 39.1614 39.3215" fill="#FF7A59"/>
</svg>
