<svg width="64" height="64" viewBox="0 0 64 64" fill="none" xmlns="http://www.w3.org/2000/svg">
<path d="M46.4181 28.4058L51.0928 38.8023C52.0389 40.9062 51.0832 43.3712 48.9585 44.3079C46.8341 45.2446 44.3448 44.2983 43.3988 42.1944L39.6201 33.7901L37.9547 37.6751V28.4058H46.4181Z" fill="#2AA8FF"/>
<path d="M46.9246 29.5325L47.8919 31.6836C47.3077 31.4826 46.6801 31.3734 46.0269 31.3734C43.3278 31.3734 41.0689 33.2367 40.4935 35.7334L39.6201 33.7901L38.6939 35.9503V29.5325H46.9246Z" fill="#393939" fill-opacity="0.2"/>
<path d="M32.857 28.2232V35.5855H25.0696L24.2623 33.7901L23.4927 35.5855H14.8788V34.3363L20.2776 21.7417C20.9604 20.1488 22.5259 19.1944 24.1703 19.2C25.788 19.1945 27.3339 20.1175 28.0341 21.6749L31.9401 30.3622L32.857 28.2232Z" fill="#017ACE"/>
<path d="M31.9346 30.3496L31.9401 30.3622L35.6354 21.7417C36.3183 20.1488 37.8838 19.1944 39.5282 19.2C41.1459 19.1945 42.6919 20.1175 43.3919 21.6749L47.8881 31.6748C46.9815 30.8995 45.8003 30.4306 44.5083 30.4306C42.2635 30.4306 40.3527 31.8462 39.6361 33.8251L39.6201 33.7901L35.9902 42.2582C35.0815 44.3782 32.6093 45.3673 30.4685 44.4675C30.2591 44.3794 30.0607 44.2765 29.8737 44.1606C29.0887 43.7378 28.4326 43.0654 28.0412 42.1944L24.277 33.8226C24.8436 33.9834 25.4421 34.0694 26.0608 34.0694C28.6645 34.0694 30.9088 32.5458 31.9346 30.3496Z" fill="#AEDEFF"/>
<path d="M24.2385 33.8445L21.5278 40.1683C20.8667 40.4686 20.1301 40.636 19.3535 40.636C16.6293 40.636 14.3967 38.5767 14.1931 35.9351L16.0533 31.5952C16.9491 30.8607 18.0992 30.4193 19.3535 30.4193C21.6112 30.4193 23.5312 31.8497 24.2385 33.8445Z" fill="black"/>
<path d="M23.4434 35.7007L20.6323 42.2582C19.7236 44.3782 17.2515 45.3673 15.1107 44.4675C12.9699 43.5674 11.9711 41.1195 12.8798 38.9995L16.0012 31.7179C16.6619 31.4283 17.3927 31.2675 18.1613 31.2675C20.8148 31.2675 23.0176 33.1845 23.4434 35.7007Z" fill="#393939"/>
</svg>
