<?xml version="1.0" encoding="UTF-8"?>
<svg version="1.1" xmlns="http://www.w3.org/2000/svg" width="25" height="25" viewBox="0 0 225 225">
<path d="M0 0 C74.25 0 148.5 0 225 0 C225 74.25 225 148.5 225 225 C150.75 225 76.5 225 0 225 C0 150.75 0 76.5 0 0 Z " fill="#FBFCFB" transform="translate(0,0)"/>
<path d="M0 0 C74.25 0 148.5 0 225 0 C225 74.25 225 148.5 225 225 C150.75 225 76.5 225 0 225 C0 150.75 0 76.5 0 0 Z M43.59765625 51.0625 C23.43491706 73.86307123 19.35254023 98.83557428 21.15087891 128.48779297 C23.01024494 150.38420858 37.04612641 170.79143121 53.26171875 184.828125 C73.71528183 201.05092254 98.08125559 208.52937751 124.06396484 205.78173828 C149.25970517 202.18776078 172.4590004 188.77748596 187.76953125 168.421875 C193.6812485 160.15354071 197.8113083 151.62586308 201 142 C201.61875 140.22496094 201.61875 140.22496094 202.25 138.4140625 C209.3092621 115.0302568 205.41376468 90.44132363 194.4765625 69.015625 C188.52864552 58.23677076 180.77368869 48.54558725 171 41 C169.89785156 40.14341797 169.89785156 40.14341797 168.7734375 39.26953125 C129.32684713 10.16642793 77.1142597 16.34026333 43.59765625 51.0625 Z " fill="#FDFDFD" transform="translate(0,0)"/>
<path d="M0 0 C3.48600493 2.85565883 6.77520154 5.85415141 10 9 C10.886875 9.845625 11.77375 10.69125 12.6875 11.5625 C13.450625 12.366875 14.21375 13.17125 15 14 C15.51820313 14.52335937 16.03640625 15.04671875 16.5703125 15.5859375 C24.30292677 23.80400738 29.39352923 33.78570225 33.375 44.25 C33.61355713 44.87455078 33.85211426 45.49910156 34.09790039 46.14257812 C42.05623879 68.20848784 39.35431894 92.83707242 30.125 114 C25.02210187 124.24474967 18.88640541 132.72854405 11 141 C10.48308594 141.60328125 9.96617187 142.2065625 9.43359375 142.828125 C-3.91896523 157.7495225 -27.40549666 166.89735903 -46.97900391 168.12402344 C-72.05981246 169.07802461 -94.56399631 162.3400031 -114 146 C-114.80050781 145.35675781 -115.60101563 144.71351563 -116.42578125 144.05078125 C-131.605974 131.27864396 -143.99352146 110.47171659 -145.83300781 90.52001953 C-147.64209754 63.21969174 -144.67524884 38.58697437 -126.62109375 16.9921875 C-94.42770726 -19.75913001 -40.95674792 -29.56195716 0 0 Z M-80 10 C-81.13050781 10.46277344 -82.26101562 10.92554688 -83.42578125 11.40234375 C-100.89078366 19.20910439 -113.93002544 34.31463591 -121 52 C-123.56990215 59.60128149 -124.55084669 66.68044937 -124.5 74.6875 C-124.49500488 75.73188232 -124.49000977 76.77626465 -124.48486328 77.85229492 C-124.06007399 96.87846088 -115.6481544 112.76105607 -102.8125 126.5625 C-88.13601621 140.58958185 -70.50287855 145.54471237 -50.765625 145.2734375 C-34.50842644 144.7343774 -17.83676834 138.34819628 -6 127 C7.80480348 112.21081325 15.37328747 95.95575436 15.3125 75.75 C15.32861328 74.69425781 15.34472656 73.63851562 15.36132812 72.55078125 C15.37281832 53.77580806 7.55208147 38.38202047 -5.0859375 24.75 C-20.94493447 9.65742296 -39.63575529 5.46832198 -60.80078125 5.7265625 C-67.86942519 5.93964504 -73.51217948 7.06690975 -80 10 Z " fill="#040404" transform="translate(167,38)"/>
<path d="M0 0 C9.46305723 6.76289823 15.8023431 14.41112936 19.75 25.375 C19.99492187 26.05175781 20.23984375 26.72851562 20.4921875 27.42578125 C23.98818212 38.99129771 21.15654422 50.90204691 17.5625 62.0625 C13.60827883 69.28918008 8.33236913 75.43822315 1.75 80.375 C1.75 79.715 1.75 79.055 1.75 78.375 C0.821875 79.035 -0.10625 79.695 -1.0625 80.375 C-4.25 82.375 -4.25 82.375 -7.25 82.375 C-6.92 79.735 -6.59 77.095 -6.25 74.375 C-3.61 74.045 -0.97 73.715 1.75 73.375 C1.75 72.715 1.75 72.055 1.75 71.375 C3.125 69.75 3.125 69.75 4.75 68.375 C5.41 68.375 6.07 68.375 6.75 68.375 C5.80066101 65.02066891 4.85251165 61.68253495 3.75 58.375 C-1.33303686 58.26179144 -1.33303686 58.26179144 -6.25 59.375 C-6.90352948 61.35796446 -6.90352948 61.35796446 -7.3125 63.6875 C-8.20394985 66.52927922 -8.77854073 68.00407966 -11.13671875 69.859375 C-19.19341881 73.53482825 -29.26689477 73.85189318 -37.703125 71.3515625 C-38.96382812 70.86816406 -38.96382812 70.86816406 -40.25 70.375 C-40.25 71.035 -40.25 71.695 -40.25 72.375 C-36.19691667 73.48289535 -32.17888626 73.71231267 -28 73.9375 C-26.88238281 74.00227539 -26.88238281 74.00227539 -25.7421875 74.06835938 C-23.911651 74.17396725 -22.08084824 74.27494201 -20.25 74.375 C-20.11464844 74.92929688 -19.97929688 75.48359375 -19.83984375 76.0546875 C-19.15600079 78.35600333 -18.47491825 80.30531054 -17.25 82.375 C-13.70136841 83.98635346 -13.70136841 83.98635346 -10.25 84.375 C-12.23 84.87 -12.23 84.87 -14.25 85.375 C-14.25 86.365 -14.25 87.355 -14.25 88.375 C-24.77785742 91.73844536 -38.45985829 89.9131386 -48.25 85.375 C-55.43021493 81.14914434 -61.18920049 75.965162 -66.25 69.375 C-66.971875 68.4675 -67.69375 67.56 -68.4375 66.625 C-75.31100445 54.30009547 -76.73188626 39.28220171 -73.296875 25.5703125 C-72.1316248 22.671937 -70.83916516 20.0610346 -69.25 17.375 C-68.79625 16.55257812 -68.3425 15.73015625 -67.875 14.8828125 C-66.5625 12.625 -66.5625 12.625 -64.25 9.375 C-63.59 9.375 -62.93 9.375 -62.25 9.375 C-61.99734375 8.776875 -61.7446875 8.17875 -61.484375 7.5625 C-59.3555644 3.78992425 -55.73829431 1.82142191 -52.25 -0.625 C-51.321875 -1.346875 -50.39375 -2.06875 -49.4375 -2.8125 C-34.04423814 -11.56553125 -14.54803791 -9.07415496 0 0 Z " fill="#39B4EA" transform="translate(142.25,86.625)"/>
<path d="M0 0 C5.47729874 4.50845955 10.08844697 10.81693347 11.3125 17.9375 C11.94019424 26.10781525 12.38789918 35.0178424 7.3125 41.9375 C4.98701993 42.63106423 2.65369555 43.29899212 0.3125 43.9375 C-0.52639257 45.9376918 -0.52639257 45.9376918 -1 48.3125 C-1.77841213 51.17281913 -2.21207176 52.56132609 -4.55859375 54.41796875 C-12.79854717 58.16586218 -23.59543669 58.65859731 -32.1875 55.75 C-40.57019605 51.40896097 -45.56660073 46.69162656 -49.6875 37.9375 C-50.72745974 33.95252154 -51.33685118 30.03794438 -51.6875 25.9375 C-50.49125 25.710625 -49.295 25.48375 -48.0625 25.25 C-43.48403015 24.11148174 -41.01128437 22.26128437 -37.6875 18.9375 C-36.72443102 16.04829306 -36.4919064 14.01502119 -36.4375 11 C-36.41171875 10.14535156 -36.3859375 9.29070312 -36.359375 8.41015625 C-36.75025214 5.46461781 -37.92147014 4.26147885 -39.6875 1.9375 C-38.47475747 -1.70072758 -36.90683594 -2.34880825 -33.671875 -4.1953125 C-22.74531139 -8.97030683 -9.46361564 -6.67649423 0 0 Z " fill="#020203" transform="translate(135.6875,102.0625)"/>
<path d="M0 0 C0.66 0 1.32 0 2 0 C2 2.97 2 5.94 2 9 C4.97 9.33 7.94 9.66 11 10 C11.125 16.75 11.125 16.75 10 19 C10.66 19 11.32 19 12 19 C11.49396008 21.16874252 11.00016187 22.99967627 10 25 C11.6396875 25.2165625 11.6396875 25.2165625 13.3125 25.4375 C17 26 17 26 20 27 C20.556875 27.9075 21.11375 28.815 21.6875 29.75 C24.25942167 33.36459261 26.54708989 34.78321744 30.390625 36.82421875 C30.92171875 37.21222656 31.4528125 37.60023438 32 38 C32 38.99 32 39.98 32 41 C36.05308333 42.10789535 40.07111374 42.33731267 44.25 42.5625 C45.36761719 42.62727539 45.36761719 42.62727539 46.5078125 42.69335938 C48.338349 42.79896725 50.16915176 42.89994201 52 43 C52.20302734 43.83144531 52.20302734 43.83144531 52.41015625 44.6796875 C53.09399921 46.98100333 53.77508175 48.93031054 55 51 C58.54863159 52.61135346 58.54863159 52.61135346 62 53 C60.02 53.495 60.02 53.495 58 54 C58 54.99 58 55.98 58 57 C47.47214258 60.36344536 33.79014171 58.5381386 24 54 C16.86884464 49.80301794 10.95142806 44.62710218 6 38 C5.31292969 37.08734375 4.62585938 36.1746875 3.91796875 35.234375 C1.80312622 31.66800104 0.91205142 28.40785011 0.25 24.375 C0.12786133 23.67858398 0.00572266 22.98216797 -0.12011719 22.26464844 C-1.32191605 14.91583352 -2.09815557 7.24202083 0 0 Z " fill="#3AB4E9" transform="translate(70,118)"/>
<path d="M0 0 C2.30905417 2.68148226 2.95257576 4.28863644 3.1875 7.8125 C3.0946875 8.8953125 3.0946875 8.8953125 3 10 C2.34 10 1.68 10 1 10 C0.814375 11.2065625 0.814375 11.2065625 0.625 12.4375 C0.41875 13.283125 0.2125 14.12875 0 15 C-3.21451269 16.60725635 -6.43612536 16.05748185 -10 16 C-10.33 18.64 -10.66 21.28 -11 24 C-10.113125 23.525625 -9.22625 23.05125 -8.3125 22.5625 C-5 21 -5 21 -2.52734375 20.65625 C0.69591595 19.81929849 1.69638744 18.51360248 3.75 15.9375 C4.81992612 14.6140479 5.89978035 13.29837748 7 12 C7.33 12 7.66 12 8 12 C7.67 15.3 7.34 18.6 7 22 C7.99 22.66 8.98 23.32 10 24 C-7.21409571 35.97052347 -25.27262337 39.92194476 -46 38 C-54.87211993 36.39029839 -63.15963595 32.33526012 -71 28 C-67.54704155 24.54704155 -62.87430884 24.89888018 -58.1875 24.6875 C-53.52850395 24.71556624 -50.20446617 25.88171471 -46.10546875 28.02734375 C-42.15427647 29.85266263 -38.22478118 30.12407841 -33.91796875 30.09765625 C-32.98662109 30.09443359 -32.05527344 30.09121094 -31.09570312 30.08789062 C-30.13599609 30.07951172 -29.17628906 30.07113281 -28.1875 30.0625 C-27.20845703 30.05798828 -26.22941406 30.05347656 -25.22070312 30.04882812 C-22.81373889 30.03708684 -20.40690143 30.02066419 -18 30 C-18 29.01 -18 28.02 -18 27 C-17.34 26.67 -16.68 26.34 -16 26 C-16.94875 25.7525 -17.8975 25.505 -18.875 25.25 C-22 24 -22 24 -23.375 22.125 C-24 20 -24 20 -24 16 C-25.10859375 16.02320313 -26.2171875 16.04640625 -27.359375 16.0703125 C-28.82290992 16.08907577 -30.28645214 16.10727537 -31.75 16.125 C-32.47960937 16.14175781 -33.20921875 16.15851563 -33.9609375 16.17578125 C-37.8044624 16.21072239 -40.74606772 16.17499684 -44 14 C-44 13.34 -44 12.68 -44 12 C-42.73929688 12.23976562 -42.73929688 12.23976562 -41.453125 12.484375 C-31.68782392 13.94254213 -22.22233776 13.64553587 -13 10 C-12.87625 8.906875 -12.7525 7.81375 -12.625 6.6875 C-12 3 -12 3 -10 0 C-6.17853346 -1.27382218 -3.89335307 -0.97333827 0 0 Z " fill="#F2F7F6" transform="translate(146,145)"/>
<path d="M0 0 C1.98 0.66 3.96 1.32 6 2 C6 2.99 6 3.98 6 5 C7.65 5.66 9.3 6.32 11 7 C11 8.32 11 9.64 11 11 C11.66 11 12.32 11 13 11 C17.49425068 20.51818091 18.92581098 28.54944564 18 39 C17.91516357 40.11012451 17.91516357 40.11012451 17.82861328 41.24267578 C16.6850879 54.54839037 12.72951614 62.31676228 2.4375 71.1875 C1.633125 71.785625 0.82875 72.38375 0 73 C0 72.34 0 71.68 0 71 C-1.3921875 71.99 -1.3921875 71.99 -2.8125 73 C-6 75 -6 75 -9 75 C-8.67 72.36 -8.34 69.72 -8 67 C-5.36 66.67 -2.72 66.34 0 66 C0 65.34 0 64.68 0 64 C1.375 62.375 1.375 62.375 3 61 C3.66 61 4.32 61 5 61 C4.05066101 57.64566891 3.10251165 54.30753495 2 51 C1.01 50.67 0.02 50.34 -1 50 C-0.34 48.02 0.32 46.04 1 44 C1.99 44 2.98 44 4 44 C4.08174796 41.16607074 4.14084985 38.33455181 4.1875 35.5 C4.21263672 34.70851562 4.23777344 33.91703125 4.26367188 33.1015625 C4.33458526 27.33394034 3.16894993 23.32844391 1 18 C1 16.68 1 15.36 1 14 C0.01 13.67 -0.98 13.34 -2 13 C-1.125 8.25 -1.125 8.25 0 6 C-0.99 5.67 -1.98 5.34 -3 5 C-2.01 5 -1.02 5 0 5 C0 3.35 0 1.7 0 0 Z " fill="#39B5EB" transform="translate(144,94)"/>
<path d="M0 0 C3.82202498 2.28842248 7.96901896 4.93803791 10 9 C10.41593526 13.51929654 10.55848834 17.64787033 8.8125 21.875 C3.81817173 27.73041935 3.81817173 27.73041935 -0.37109375 28.3515625 C-5.31829852 28.5132839 -9.14803621 28.39879158 -13 25 C-16.90127077 20.67697023 -17.67815269 17.06248322 -17.46484375 11.4140625 C-16.70057894 7.44502343 -14.9691422 5.68636675 -12 3 C-11.34 3 -10.68 3 -10 3 C-10 2.34 -10 1.68 -10 1 C-6.68184368 -0.65907816 -3.55660939 -0.75954709 0 0 Z " fill="#F9FBFA" transform="translate(90,99)"/>
<path d="M0 0 C2.30905417 2.68148226 2.95257576 4.28863644 3.1875 7.8125 C3.0946875 8.8953125 3.0946875 8.8953125 3 10 C2.34 10 1.68 10 1 10 C0.814375 11.2065625 0.814375 11.2065625 0.625 12.4375 C0.41875 13.283125 0.2125 14.12875 0 15 C-3.21451269 16.60725635 -6.43612536 16.05748185 -10 16 C-10.33 18.64 -10.66 21.28 -11 24 C-10.071875 23.525625 -9.14375 23.05125 -8.1875 22.5625 C-5 21 -5 21 -2 20 C-3.40738135 24.22214406 -5.83357467 24.90478094 -9.6328125 26.92578125 C-12.4044915 28.18355637 -14.96808474 28.76677575 -18 29 C-18 28.34 -18 27.68 -18 27 C-17.34 26.67 -16.68 26.34 -16 26 C-16.94875 25.7525 -17.8975 25.505 -18.875 25.25 C-22 24 -22 24 -23.375 22.125 C-24 20 -24 20 -24 16 C-25.10859375 16.02320313 -26.2171875 16.04640625 -27.359375 16.0703125 C-28.82290992 16.08907577 -30.28645214 16.10727537 -31.75 16.125 C-32.47960937 16.14175781 -33.20921875 16.15851563 -33.9609375 16.17578125 C-37.8044624 16.21072239 -40.74606772 16.17499684 -44 14 C-44 13.34 -44 12.68 -44 12 C-42.73929687 12.23976562 -42.73929687 12.23976562 -41.453125 12.484375 C-31.68782392 13.94254213 -22.22233776 13.64553587 -13 10 C-12.814375 8.3603125 -12.814375 8.3603125 -12.625 6.6875 C-12 3 -12 3 -10 0 C-6.17853346 -1.27382218 -3.89335307 -0.97333827 0 0 Z " fill="#51AACE" transform="translate(146,145)"/>
<path d="M0 0 C0.33 0.99 0.66 1.98 1 3 C0.01 3.33 -0.98 3.66 -2 4 C-2 4.66 -2 5.32 -2 6 C-0.87851563 6.09087891 -0.87851563 6.09087891 0.265625 6.18359375 C1.25046875 6.26738281 2.2353125 6.35117188 3.25 6.4375 C4.71179688 6.55931641 4.71179688 6.55931641 6.203125 6.68359375 C9 7 9 7 11.1875 7.5625 C13.65387704 8.15783239 15.57005121 7.6074872 18 7 C18 6.34 18 5.68 18 5 C23.79597426 4.00889633 29.43832785 3.81677213 35.3125 3.8125 C36.21806641 3.80025391 37.12363281 3.78800781 38.05664062 3.77539062 C39.35311523 3.77249023 39.35311523 3.77249023 40.67578125 3.76953125 C41.8500769 3.76336792 41.8500769 3.76336792 43.0480957 3.75708008 C45 4 45 4 47 6 C44.86332683 6.68678781 43.44748193 7.11660442 41.24609375 6.54296875 C33.24668181 4.60919786 24.40420499 5.45747089 17 9 C14.54419059 10.52112808 14.54419059 10.52112808 13 12 C11 11 9 10 7 9 C5.29297265 8.93003986 3.58331997 8.91559846 1.875 8.9375 C0.96492188 8.94652344 0.05484375 8.95554687 -0.8828125 8.96484375 C-1.58148438 8.97644531 -2.28015625 8.98804687 -3 9 C-3 9.66 -3 10.32 -3 11 C-4.65002828 12.35386936 -6.3174387 13.68678142 -8 15 C-9.85506839 18.71013678 -9.45334699 22.95092823 -9 27 C-7.39673408 30.20653183 -6.10417109 32.17187168 -3.25 34.3125 C0.13291951 35.34616985 3.48115657 35.64811566 7 36 C7 36.33 7 36.66 7 37 C5.02 37 3.04 37 1 37 C1.45380895 38.89692143 1.91324992 40.79249595 2.375 42.6875 C2.63023438 43.74324219 2.88546875 44.79898438 3.1484375 45.88671875 C3.91905489 48.70406766 4.85498543 51.31668325 6 54 C5.01 54.495 5.01 54.495 4 55 C4 54.34 4 53.68 4 53 C0.535 52.505 0.535 52.505 -3 52 C-2.34 50.02 -1.68 48.04 -1 46 C-1.66 46 -2.32 46 -3 46 C-2.67 43.03 -2.34 40.06 -2 37 C-4.97 36.67 -7.94 36.34 -11 36 C-11 33.03 -11 30.06 -11 27 C-11.66 27 -12.32 27 -13 27 C-13.18262185 35.36002255 -13.33349647 42.91054555 -11 51 C-11.44140625 53.203125 -11.44140625 53.203125 -12 55 C-14.82367488 48.60167287 -15.54623136 43.21592495 -15.5 36.25 C-15.49572998 35.27788574 -15.49145996 34.30577148 -15.48706055 33.30419922 C-15.30634456 25.66304209 -13.92632337 19.63634004 -10 13 C-9.54625 12.17757812 -9.0925 11.35515625 -8.625 10.5078125 C-7.3125 8.25 -7.3125 8.25 -5 5 C-4.34 5 -3.68 5 -3 5 C-2.690625 4.360625 -2.38125 3.72125 -2.0625 3.0625 C-1 1 -1 1 0 0 Z " fill="#62B3D1" transform="translate(83,91)"/>
<path d="M0 0 C0.66 0 1.32 0 2 0 C2 2.97 2 5.94 2 9 C4.97 9.33 7.94 9.66 11 10 C11.125 16.75 11.125 16.75 10 19 C10.66 19 11.32 19 12 19 C11.30058404 22.14737182 10.23921302 25.02588876 9 28 C8.34 28 7.68 28 7 28 C6.67 28.66 6.34 29.32 6 30 C7.32 30 8.64 30 10 30 C10.33 30.99 10.66 31.98 11 33 C11.66 33.33 12.32 33.66 13 34 C12.67 35.32 12.34 36.64 12 38 C9.625 37.3125 9.625 37.3125 7 36 C5.6875 33.375 5.6875 33.375 5 31 C4.01 31 3.02 31 2 31 C-2.85688968 9.83783784 -2.85688968 9.83783784 0 0 Z " fill="#38B6EB" transform="translate(70,118)"/>
<path d="M0 0 C2.30905417 2.68148226 2.95257576 4.28863644 3.1875 7.8125 C3.125625 8.534375 3.06375 9.25625 3 10 C2.34 10 1.68 10 1 10 C0.67 10.99 0.34 11.98 0 13 C-3 15 -3 15 -6 14.8125 C-10.49282297 13.59569378 -10.49282297 13.59569378 -12 11 C-12.5872443 6.53507905 -12.53966316 3.80949473 -10 0 C-6.17853346 -1.27382218 -3.89335307 -0.97333827 0 0 Z " fill="#D6EEF0" transform="translate(146,145)"/>
<path d="M0 0 C4.74171722 4.74171722 5.73138276 11.65691382 7 18 C8.65 15.03 10.3 12.06 12 9 C12.66 9 13.32 9 14 9 C13.07545032 16.50359158 7.13387459 22.4188995 1.5 27.125 C0.675 27.74375 -0.15 28.3625 -1 29 C-1 28.34 -1 27.68 -1 27 C-1.928125 27.66 -2.85625 28.32 -3.8125 29 C-7 31 -7 31 -10 31 C-9.67 28.36 -9.34 25.72 -9 23 C-5.04 22.505 -5.04 22.505 -1 22 C-1 21.34 -1 20.68 -1 20 C0.375 18.375 0.375 18.375 2 17 C2.66 17 3.32 17 4 17 C3.05066101 13.64566891 2.10251165 10.30753495 1 7 C0.01 6.67 -0.98 6.34 -2 6 C-1.34 4.02 -0.68 2.04 0 0 Z " fill="#52B8E1" transform="translate(145,138)"/>
<path d="M0 0 C12.82139771 6.30894173 19.89324451 15.57952826 24.6953125 28.93359375 C27.78371976 39.39502962 25.78769038 49.71209502 23 60 C22.67 60 22.34 60 22 60 C22.0721875 59.30777344 22.144375 58.61554688 22.21875 57.90234375 C23.96496946 40.65116462 23.96496946 40.65116462 19.875 24.07421875 C19 22 19 22 19 20 C18.34 20 17.68 20 17 20 C17 18.68 17 17.36 17 16 C16.236875 15.79375 15.47375 15.5875 14.6875 15.375 C12 14 12 14 10.75 11.25 C8.52299201 7.11412803 5.83318731 5.65222597 1.86328125 3.296875 C1.24839844 2.86890625 0.63351563 2.4409375 0 2 C0 1.34 0 0.68 0 0 Z " fill="#62B2D3" transform="translate(138,85)"/>
<path d="M0 0 C0.66 0.66 1.32 1.32 2 2 C-10.66970387 2.3690205 -10.66970387 2.3690205 -16 0 C-16 -0.66 -16 -1.32 -16 -2 C-18.46008778 -1.91320858 -20.91643517 -1.80639045 -23.375 -1.6875 C-24.07367188 -1.66494141 -24.77234375 -1.64238281 -25.4921875 -1.61914062 C-27.77288941 -1.53015704 -27.77288941 -1.53015704 -31 -1 C-31.99 0.485 -31.99 0.485 -33 2 C-35.2421875 2.66015625 -35.2421875 2.66015625 -37.875 3.0625 C-43.03094957 3.87052195 -46.44606192 5.09066812 -50 9 C-50.66 8.34 -51.32 7.68 -52 7 C-36.0745133 -4.70092478 -18.61078161 -8.04314537 0 0 Z " fill="#5DB2D1" transform="translate(136,83)"/>
<path d="M0 0 C1.485 0.99 1.485 0.99 3 2 C6.18777766 3.8391025 9.12842836 4.52140473 12.75 5.125 C13.73484375 5.29257813 14.7196875 5.46015625 15.734375 5.6328125 C16.85585937 5.81457031 16.85585937 5.81457031 18 6 C18 6.33 18 6.66 18 7 C16.02 7 14.04 7 12 7 C12.45380895 8.89692143 12.91324992 10.79249595 13.375 12.6875 C13.63023438 13.74324219 13.88546875 14.79898438 14.1484375 15.88671875 C14.91905489 18.70406766 15.85498543 21.31668325 17 24 C16.34 24.33 15.68 24.66 15 25 C15 24.34 15 23.68 15 23 C12.69 22.67 10.38 22.34 8 22 C8.66 20.02 9.32 18.04 10 16 C9.34 16 8.68 16 8 16 C8.33 13.03 8.66 10.06 9 7 C6.03 6.67 3.06 6.34 0 6 C0 4.02 0 2.04 0 0 Z " fill="#40B2E2" transform="translate(72,121)"/>
<path d="M0 0 C0.99 0 1.98 0 3 0 C4.31640625 1.71484375 4.31640625 1.71484375 5.5625 3.9375 C7.20338711 7.06087402 7.20338711 7.06087402 10 9 C10 9.99 10 10.98 10 12 C10.598125 12.268125 11.19625 12.53625 11.8125 12.8125 C14 14 14 14 15.3125 15.4375 C17.84582006 17.78316672 20.82038433 18.70659702 24 20 C25.010625 20.515625 26.02125 21.03125 27.0625 21.5625 C33.69108627 24.80627626 39.11156053 25.25970002 46.375 25.125 C47.30183594 25.11597656 48.22867188 25.10695312 49.18359375 25.09765625 C51.45600077 25.07422937 53.7278618 25.04142748 56 25 C48.21870824 29.29970786 36.43820223 27.75544262 28.125 25.5 C15.47420235 21.00896684 6.11436707 11.73958478 0 0 Z " fill="#5DB2D0" transform="translate(72,149)"/>
<path d="M0 0 C1.98 0 3.96 0 6 0 C6.33 0.99 6.66 1.98 7 3 C9.01508358 3.73323796 9.01508358 3.73323796 11 4 C11.33 5.65 11.66 7.3 12 9 C12.61359375 9.06058594 13.2271875 9.12117188 13.859375 9.18359375 C16 10 16 10 17.265625 12.16015625 C20.21791021 20.86471144 20.66171548 28.90954803 20 38 C19.67 38.66 19.34 39.32 19 40 C18.34 40 17.68 40 17 40 C17.03480469 38.7934375 17.06960937 37.586875 17.10546875 36.34375 C17.13362984 34.72918072 17.16092749 33.11459621 17.1875 31.5 C17.21263672 30.70851562 17.23777344 29.91703125 17.26367188 29.1015625 C17.36228077 21.08137215 15.20453656 14.2721338 10 8 C7.41155839 6.02707758 4.76973073 4.20041622 2.046875 2.41796875 C1.37140625 1.95003906 0.6959375 1.48210937 0 1 C0 0.67 0 0.34 0 0 Z " fill="#4CA4C8" transform="translate(129,98)"/>
<path d="M0 0 C2.37106811 1.09587182 3.95788794 2.31525755 6 4 C6 4.33 6 4.66 6 5 C4.95199219 4.98839844 3.90398437 4.97679688 2.82421875 4.96484375 C1.44531428 4.95546345 0.06640789 4.9463635 -1.3125 4.9375 C-2.00279297 4.92912109 -2.69308594 4.92074219 -3.40429688 4.91210938 C-6.5483025 4.89692094 -8.99420019 4.99806673 -12 6 C-14.63742618 10.54223397 -14.62171712 15.87327152 -15 21 C-17.45993942 18.54006058 -17.34992473 17.64998115 -17.4375 14.25 C-17.37794136 10.51404919 -16.99532088 8.29769654 -14.625 5.375 C-12 3 -12 3 -10 3 C-10 2.34 -10 1.68 -10 1 C-6.79099914 -0.60450043 -3.48101315 -0.48992037 0 0 Z " fill="#ECFDFB" transform="translate(90,99)"/>
<path d="M0 0 C2.4375 0.75 2.4375 0.75 4.4375 2.75 C4.25 5.75 4.25 5.75 3.4375 8.75 C0.4375 10.75 0.4375 10.75 -2.1875 10.4375 C-4.5625 9.75 -4.5625 9.75 -5.5625 8.75 C-5.8125 5.3125 -5.8125 5.3125 -5.5625 1.75 C-2.5625 -0.25 -2.5625 -0.25 0 0 Z " fill="#ECFBF7" transform="translate(130.5625,158.25)"/>
<path d="M0 0 C1.258125 -0.04125 2.51625 -0.0825 3.8125 -0.125 C4.52019531 -0.14820313 5.22789062 -0.17140625 5.95703125 -0.1953125 C8 0 8 0 11 2 C10.67 4.31 10.34 6.62 10 9 C7.69 9.33 5.38 9.66 3 10 C2.814375 9.071875 2.814375 9.071875 2.625 8.125 C2.12802644 5.80879168 2.12802644 5.80879168 0 4 C0 2.68 0 1.36 0 0 Z " fill="#FAFBF6" transform="translate(136,148)"/>
<path d="M0 0 C3.26356713 2.17571142 3.39646342 2.38091689 4.125 5.9375 C4.64593923 8.38225866 5.20554143 10.61662429 6 13 C5.01 13 4.02 13 3 13 C2.67 11.35 2.34 9.7 2 8 C1.34 8 0.68 8 0 8 C-0.18262185 16.36002255 -0.33349647 23.91054555 2 32 C1.55859375 34.203125 1.55859375 34.203125 1 36 C-1.93578584 29.44676829 -2.43285991 24.00993529 -2.3125 16.875 C-2.31572266 15.91207031 -2.31894531 14.94914062 -2.32226562 13.95703125 C-2.28414989 8.91882468 -1.99219474 4.71459631 0 0 Z " fill="#60B3D1" transform="translate(70,110)"/>
<path d="M0 0 C0.33 0.66 0.66 1.32 1 2 C0.38125 2.185625 -0.2375 2.37125 -0.875 2.5625 C-4.05602866 4.71437233 -4.19451947 7.37533763 -5 11 C-5.66 10.34 -6.32 9.68 -7 9 C-7 7.68 -7 6.36 -7 5 C-8.10859375 5.02320313 -9.2171875 5.04640625 -10.359375 5.0703125 C-11.82290992 5.08907577 -13.28645214 5.10727537 -14.75 5.125 C-15.47960937 5.14175781 -16.20921875 5.15851563 -16.9609375 5.17578125 C-20.8044624 5.21072239 -23.74606772 5.17499684 -27 3 C-27 2.34 -27 1.68 -27 1 C-25.74703125 1.24169922 -25.74703125 1.24169922 -24.46875 1.48828125 C-20.76982563 2.0339559 -17.23813917 2.16850539 -13.5 2.1875 C-11.59734375 2.20876953 -11.59734375 2.20876953 -9.65625 2.23046875 C-6.07886272 2.00497105 -3.3236694 1.29766722 0 0 Z " fill="#4EA7CC" transform="translate(129,156)"/>
<path d="M0 0 C0.99 0 1.98 0 3 0 C2.78778809 0.59425781 2.57557617 1.18851562 2.35693359 1.80078125 C0.19013713 8.3303659 -0.46139469 14.14602129 -0.375 21 C-0.39240234 22.38058594 -0.39240234 22.38058594 -0.41015625 23.7890625 C-0.38262622 30.30450306 0.81195478 35.87280883 3 42 C2.34 42 1.68 42 1 42 C0.67 40.68 0.34 39.36 0 38 C-0.66 38 -1.32 38 -2 38 C-2.04966189 33.55258682 -2.08584293 29.1053232 -2.10986328 24.65771484 C-2.11988339 23.14661851 -2.13350321 21.63554138 -2.15087891 20.12451172 C-2.17530392 17.94493858 -2.18652307 15.76562316 -2.1953125 13.5859375 C-2.20578613 12.2767334 -2.21625977 10.9675293 -2.22705078 9.61865234 C-2.00366763 6.0584534 -1.2935223 3.30765738 0 0 Z " fill="#C0EEF8" transform="translate(69,106)"/>
<path d="M0 0 C0.66 0 1.32 0 2 0 C2 2.97 2 5.94 2 9 C3.32 9.33 4.64 9.66 6 10 C4.02 10 2.04 10 0 10 C0.20496094 10.71285156 0.40992187 11.42570313 0.62109375 12.16015625 C2.1092457 17.45057202 3.31892894 22.55143154 4 28 C4.33 28.99 4.66 29.98 5 31 C4.01 31 3.02 31 2 31 C-2.85688968 9.83783784 -2.85688968 9.83783784 0 0 Z " fill="#3DAFE9" transform="translate(70,118)"/>
<path d="M0 0 C-1.43032837 1.17544805 -2.86953242 2.34010262 -4.3125 3.5 C-5.11300781 4.1496875 -5.91351563 4.799375 -6.73828125 5.46875 C-9 7 -9 7 -12 7 C-11.67 4.36 -11.34 1.72 -11 -1 C-3.375 -2.25 -3.375 -2.25 0 0 Z " fill="#3EB4EB" transform="translate(147,162)"/>
<path d="M0 0 C6.45801527 1.78625954 6.45801527 1.78625954 8.94140625 2.765625 C16.11798367 5.54365497 23.38624393 5.70909232 31 6 C31 6.33 31 6.66 31 7 C23.74 7 16.48 7 9 7 C9 6.34 9 5.68 9 5 C6.03 4.01 3.06 3.02 0 2 C0 1.34 0 0.68 0 0 Z " fill="#D8F8FD" transform="translate(91,170)"/>
<path d="M0 0 C2.65197185 2.65197185 3.584501 5.55356766 5 9 C5.33 9.66 5.66 10.32 6 11 C6.25 14 6.25 14 6 17 C5.01 17.66 4.02 18.32 3 19 C3.04125 17.948125 3.0825 16.89625 3.125 15.8125 C3.00767341 12.23403909 2.73061598 10.09689175 1 7 C0.01 6.67 -0.98 6.34 -2 6 C-1.34 4.02 -0.68 2.04 0 0 Z " fill="#52A7C8" transform="translate(145,138)"/>
<path d="M0 0 C7.03354708 -0.52861732 13.03411719 -0.08604228 19 4 C20.5625 6.75 20.5625 6.75 21 9 C17.93996789 7.85248796 15.07156068 6.52451334 12.1875 5 C8.20435868 2.96670119 4.36505442 1.9353688 0 1 C0 0.67 0 0.34 0 0 Z " fill="#C8EFF9" transform="translate(123,79)"/>
<path d="M0 0 C-6.08787705 2.02929235 -12.09267705 1.42351711 -18 -1 C-18 -1.66 -18 -2.32 -18 -3 C-11.2123279 -4.79673673 -6.13247716 -2.82093949 0 0 Z " fill="#4DB2D8" transform="translate(138,84)"/>
<path d="M0 0 C2 1.8125 2 1.8125 4 4 C4 4.99 4 5.98 4 7 C6.31 7 8.62 7 11 7 C9.875 8.5625 9.875 8.5625 8 10 C4.85035353 9.86876473 2.76183315 9.50788877 0.125 7.75 C-1.39056296 5.39245761 -1.28918735 3.74727982 -1 1 C-0.67 0.67 -0.34 0.34 0 0 Z " fill="#D8F6FA" transform="translate(135,150)"/>
<path d="M0 0 C1.32 0.33 2.64 0.66 4 1 C4 2.65 4 4.3 4 6 C5.32 6.33 6.64 6.66 8 7 C4.04 7 0.08 7 -4 7 C-3.67 6.01 -3.34 5.02 -3 4 C-2.34 3.67 -1.68 3.34 -1 3 C-0.67 2.01 -0.34 1.02 0 0 Z " fill="#40B2E2" transform="translate(84,91)"/>
<path d="M0 0 C1.134375 0.020625 2.26875 0.04125 3.4375 0.0625 C3.4375 0.3925 3.4375 0.7225 3.4375 1.0625 C1.4575 1.0625 -0.5225 1.0625 -2.5625 1.0625 C-2.10869105 2.95942143 -1.64925008 4.85499595 -1.1875 6.75 C-0.93226562 7.80574219 -0.67703125 8.86148438 -0.4140625 9.94921875 C0.35655489 12.76656766 1.29248543 15.37918325 2.4375 18.0625 C1.7775 18.3925 1.1175 18.7225 0.4375 19.0625 C0.4375 18.4025 0.4375 17.7425 0.4375 17.0625 C-0.2225 17.0625 -0.8825 17.0625 -1.5625 17.0625 C-1.69527344 16.32644531 -1.82804687 15.59039062 -1.96484375 14.83203125 C-2.14144531 13.85621094 -2.31804687 12.88039062 -2.5 11.875 C-2.76103516 10.43060547 -2.76103516 10.43060547 -3.02734375 8.95703125 C-3.37962298 7.05163773 -3.76687637 5.15232698 -4.19140625 3.26171875 C-4.37509766 2.17310547 -4.37509766 2.17310547 -4.5625 1.0625 C-3.5625 0.0625 -3.5625 0.0625 0 0 Z " fill="#5595B1" transform="translate(86.5625,126.9375)"/>
<path d="M0 0 C2.9043261 1.1170485 4.41013306 2.6097824 6.4375 4.9375 C4.85455218 4.99187607 3.27105744 5.03046271 1.6875 5.0625 C0.80578125 5.08570312 -0.0759375 5.10890625 -0.984375 5.1328125 C-3.6760858 4.92889502 -5.26154974 4.30301721 -7.5625 2.9375 C-4.91057176 1.04326554 -3.31003216 -0.08073249 0 0 Z " fill="#03060B" transform="translate(128.5625,98.0625)"/>
<path d="M0 0 C-4.62048376 3.72619658 -9.30982806 7.36230673 -14 11 C-14.33 9.68 -14.66 8.36 -15 7 C-14.01 7 -13.02 7 -12 7 C-11.67 6.01 -11.34 5.02 -11 4 C-10.01 4 -9.02 4 -8 4 C-7.67 3.01 -7.34 2.02 -7 1 C-4.53721199 -0.231394 -2.7204945 -0.07159196 0 0 Z " fill="#D6F8FC" transform="translate(95,83)"/>
<path d="M0 0 C4 4 4 4 5.9375 6 C8.17531155 8.16999908 10.54070523 10.08721518 13 12 C10.75 12.25 10.75 12.25 8 12 C5.8125 10.0625 5.8125 10.0625 4 8 C3.34 7.67 2.68 7.34 2 7 C2 6.34 2 5.68 2 5 C0.68 5 -0.64 5 -2 5 C-1.34 3.35 -0.68 1.7 0 0 Z " fill="#49A3C4" transform="translate(89,145)"/>
<path d="M0 0 C0.66 0.33 1.32 0.66 2 1 C1.29423828 1.78117187 1.29423828 1.78117187 0.57421875 2.578125 C-1.41464882 5.63792127 -1.71888524 8.14527109 -2.1875 11.75 C-2.42533203 13.50570312 -2.42533203 13.50570312 -2.66796875 15.296875 C-2.77753906 16.18890625 -2.88710937 17.0809375 -3 18 C-5.45993942 15.54006058 -5.34992473 14.64998115 -5.4375 11.25 C-5.387829 7.44188971 -4.97210811 5.30231215 -2.5 2.375 C-1.675 1.59125 -0.85 0.8075 0 0 Z " fill="#DBFBFD" transform="translate(78,102)"/>
<path d="M0 0 C1.65 0.33 3.3 0.66 5 1 C4.01 1.495 4.01 1.495 3 2 C3 2.99 3 3.98 3 5 C3.66 5.33 4.32 5.66 5 6 C2.35261084 7.4606285 1.10551666 8 -2 8 C-1.125 2.25 -1.125 2.25 0 0 Z " fill="#F0F1EE" transform="translate(142,169)"/>
<path d="M0 0 C1.485 0.99 1.485 0.99 3 2 C4.32467746 2.6837045 5.65863633 3.34964186 7 4 C8.33333333 4.66666667 9.66666667 5.33333333 11 6 C11 6.33 11 6.66 11 7 C7.37 6.67 3.74 6.34 0 6 C0 4.02 0 2.04 0 0 Z " fill="#55B3DD" transform="translate(72,121)"/>
<path d="M0 0 C0.33 0.66 0.66 1.32 1 2 C-1.97 2.66 -4.94 3.32 -8 4 C-8 3.34 -8 2.68 -8 2 C-8.66 2 -9.32 2 -10 2 C-10 1.34 -10 0.68 -10 0 C-3.34250344 -1.36176066 -3.34250344 -1.36176066 0 0 Z " fill="#EEEEED" transform="translate(137,177)"/>
<path d="M0 0 C0.99 0 1.98 0 3 0 C2.79503906 0.61746094 2.59007813 1.23492187 2.37890625 1.87109375 C0.54784707 7.62710276 -0.51449864 12.97978316 -1 19 C-1.33 19 -1.66 19 -2 19 C-2.05451714 16.95863605 -2.09302485 14.91684144 -2.125 12.875 C-2.14820312 11.73804687 -2.17140625 10.60109375 -2.1953125 9.4296875 C-1.99672109 5.94242233 -1.2524801 3.2446138 0 0 Z " fill="#D4F7FC" transform="translate(69,106)"/>
<path d="M0 0 C3.29159316 -0.05790353 6.58305603 -0.09356261 9.875 -0.125 C10.81214844 -0.14175781 11.74929687 -0.15851563 12.71484375 -0.17578125 C13.61074219 -0.18222656 14.50664063 -0.18867187 15.4296875 -0.1953125 C16.25710449 -0.20578613 17.08452148 -0.21625977 17.93701172 -0.22705078 C20 0 20 0 22 2 C18.47268673 3.13377926 18.47268673 3.13377926 16.34375 2.53125 C12.99036487 1.77114937 9.66791729 1.89550291 6.25 1.9375 C5.55261719 1.94201172 4.85523437 1.94652344 4.13671875 1.95117188 C2.42444197 1.9628998 0.71220967 1.98083347 -1 2 C-0.67 1.34 -0.34 0.68 0 0 Z " fill="#4591B1" transform="translate(108,95)"/>
<path d="M0 0 C1.27310312 0.93441535 2.543388 1.87267111 3.8125 2.8125 C4.52019531 3.33457031 5.22789063 3.85664063 5.95703125 4.39453125 C7.78531393 5.83128877 9.39896688 7.31815763 11 9 C8.1875 9.3125 8.1875 9.3125 5 9 C3.25 6.5625 3.25 6.5625 2 4 C1.34 3.67 0.68 3.34 0 3 C0 2.01 0 1.02 0 0 Z " fill="#D7F9FC" transform="translate(80,161)"/>
<path d="M0 0 C0.33 0 0.66 0 1 0 C1.0825 1.27875 1.165 2.5575 1.25 3.875 C1.45869931 6.05333418 1.45869931 6.05333418 2 8 C3.92064793 9.5899433 3.92064793 9.5899433 6 10 C3.75 10.6875 3.75 10.6875 1 11 C-1.3125 9.5625 -1.3125 9.5625 -3 8 C-2.67 7.01 -2.34 6.02 -2 5 C-1.34 5 -0.68 5 0 5 C0 3.35 0 1.7 0 0 Z " fill="#65AEC2" transform="translate(133,150)"/>
<path d="M0 0 C0.66 0.99 1.32 1.98 2 3 C1.25 5.4375 1.25 5.4375 0 8 C-0.37125 8.763125 -0.7425 9.52625 -1.125 10.3125 C-1.41375 10.869375 -1.7025 11.42625 -2 12 C-3.32 11.67 -4.64 11.34 -6 11 C-5.38125 10.29875 -4.7625 9.5975 -4.125 8.875 C-1.9572991 5.94222819 -0.97344445 3.48817594 0 0 Z " fill="#DCF5FA" transform="translate(160,145)"/>
<path d="M0 0 C1.3125 2.5625 1.3125 2.5625 2 5 C-6.71428571 3.14285714 -6.71428571 3.14285714 -9 0 C-5.69183862 -1.10272046 -3.29888363 -1.21537818 0 0 Z " fill="#051326" transform="translate(108,154)"/>
<path d="M0 0 C1.75 0.125 1.75 0.125 4 1 C5.38938077 2.96147874 6.7260411 4.96166576 8 7 C8.66 7.33 9.32 7.66 10 8 C10 8.66 10 9.32 10 10 C5.28531599 8.78765268 3.52327801 6.41445146 0.91796875 2.55859375 C0 1 0 1 0 0 Z " fill="#051225" transform="translate(89,144)"/>
<path d="M0 0 C0.66 0 1.32 0 2 0 C2 2.64 2 5.28 2 8 C2.99 8 3.98 8 5 8 C5 10.64 5 13.28 5 16 C2.09707248 12.72327085 1.41970936 10.04717391 0.8125 5.75 C0.57466797 4.13351563 0.57466797 4.13351563 0.33203125 2.484375 C0.22246094 1.66453125 0.11289063 0.8446875 0 0 Z " fill="#00101E" transform="translate(84,128)"/>
<path d="M0 0 C0.99 0.99 1.98 1.98 3 3 C1.38405168 5.04119788 -0.2856382 7.04072937 -2 9 C-2.66 9 -3.32 9 -4 9 C-3.34 6.69 -2.68 4.38 -2 2 C-1.34 2 -0.68 2 0 2 C0 1.34 0 0.68 0 0 Z " fill="#F2F3F2" transform="translate(166,152)"/>
<path d="M0 0 C1.32 0 2.64 0 4 0 C5.19088986 5.38027025 6.2919519 10.45291384 6 16 C4.52839263 13.20330895 3.40889368 10.443226 2.4375 7.4375 C2.18871094 6.67308594 1.93992188 5.90867187 1.68359375 5.12109375 C1.45800781 4.42113281 1.23242188 3.72117187 1 3 C0.67 2.01 0.34 1.02 0 0 Z " fill="#D8F8FB" transform="translate(158,104)"/>
<path d="M0 0 C0 0.99 0 1.98 0 3 C-1.72681437 3.50806447 -3.45657979 4.00610467 -5.1875 4.5 C-6.63189453 4.91765625 -6.63189453 4.91765625 -8.10546875 5.34375 C-10.85345876 5.96677608 -13.19598416 6.12302812 -16 6 C-13.01559439 4.45921385 -9.98992242 3.13026724 -6.875 1.875 C-6.00617188 1.52179688 -5.13734375 1.16859375 -4.2421875 0.8046875 C-2 0 -2 0 0 0 Z " fill="#C4F4FA" transform="translate(140,170)"/>
<path d="M0 0 C2 1 2 1 5 4 C2.36 5.65 -0.28 7.3 -3 9 C-2.44271087 5.65626525 -1.64826111 2.96687001 0 0 Z " fill="#E6E3E0" transform="translate(151,165)"/>
<path d="M0 0 C2 1 2 1 3.0625 3.625 C4.0227997 7.0820789 4.53071402 10.44683471 5 14 C5.33 14.99 5.66 15.98 6 17 C5.01 17 4.02 17 3 17 C2.01 11.39 1.02 5.78 0 0 Z " fill="#47B0DD" transform="translate(69,132)"/>
<path d="M0 0 C3.13269705 3.13269705 3.05494397 5.97328423 3.0625 10.25 C3.041875 11.4875 3.02125 12.725 3 14 C1 13 1 13 0.37890625 11.234375 C-0.02399618 8.85849677 -0.09791478 6.65820483 -0.0625 4.25 C-0.05347656 3.45078125 -0.04445312 2.6515625 -0.03515625 1.828125 C-0.02355469 1.22484375 -0.01195312 0.6215625 0 0 Z " fill="#07172C" transform="translate(144,114)"/>
<path d="M0 0 C0.66 0 1.32 0 2 0 C0.6302836 3.99500618 -1.25722422 6.80009492 -4 10 C-4 7.36 -4 4.72 -4 2 C-3.34 1.67 -2.68 1.34 -2 1 C-1.34 1.33 -0.68 1.66 0 2 C0 1.34 0 0.68 0 0 Z " fill="#DAF6FB" transform="translate(76,96)"/>
<path d="M0 0 C0.33 0 0.66 0 1 0 C1.33 1.65 1.66 3.3 2 5 C4.76264289 5.59732819 7.16032769 6 10 6 C9.67 6.99 9.34 7.98 9 9 C1.125 8.125 1.125 8.125 0 7 C-0.04092937 4.66702567 -0.04241723 2.33294775 0 0 Z " fill="#5AB5DB" transform="translate(124,162)"/>
<path d="M0 0 C0.99 0.33 1.98 0.66 3 1 C3 1.99 3 2.98 3 4 C4.32 4.66 5.64 5.32 7 6 C5.02 6.99 5.02 6.99 3 8 C0.37613513 4.93882432 0 4.26826873 0 0 Z " fill="#0F0F0F" transform="translate(33,157)"/>
<path d="M0 0 C0.33 0.66 0.66 1.32 1 2 C0.38125 2.28875 -0.2375 2.5775 -0.875 2.875 C-3.13325765 3.93720042 -3.13325765 3.93720042 -5 6 C-5 5.34 -5 4.68 -5 4 C-8.96 4 -12.92 4 -17 4 C-17 3.67 -17 3.34 -17 3 C-16.27554688 2.95101562 -15.55109375 2.90203125 -14.8046875 2.8515625 C-9.58541133 2.44793848 -4.90186342 1.98724193 0 0 Z " fill="#518696" transform="translate(129,156)"/>
<path d="M0 0 C1.37432457 3.81756824 0.67975039 7.07255329 0 11 C-0.99 11 -1.98 11 -3 11 C-3.33 11.66 -3.66 12.32 -4 13 C-4.66 11.35 -5.32 9.7 -6 8 C-5.01 8 -4.02 8 -3 8 C-3 8.66 -3 9.32 -3 10 C-2.34 10 -1.68 10 -1 10 C-1.020625 8.72125 -1.04125 7.4425 -1.0625 6.125 C-1.125 2.25 -1.125 2.25 0 0 Z " fill="#41B2E0" transform="translate(160,136)"/>
<path d="M0 0 C0.66 0 1.32 0 2 0 C1.35550393 3.01217112 0.34977818 5.51655836 -1.0625 8.25 C-1.42472656 8.95640625 -1.78695312 9.6628125 -2.16015625 10.390625 C-2.43730469 10.92171875 -2.71445313 11.4528125 -3 12 C-3.33 12 -3.66 12 -4 12 C-3.53680089 7.27536912 -2.90108294 3.82942948 0 0 Z " fill="#75ACB9" transform="translate(75,101)"/>
<path d="M0 0 C0.66 0.33 1.32 0.66 2 1 C1.34 1.66 0.68 2.32 0 3 C-0.70710678 4.64991582 -1.37943989 6.31562256 -2 8 C-2.33 7.34 -2.66 6.68 -3 6 C-3.66 6 -4.32 6 -5 6 C-5 6.66 -5 7.32 -5 8 C-5.99 7.67 -6.98 7.34 -8 7 C-5.36 4.69 -2.72 2.38 0 0 Z " fill="#E3E3E3" transform="translate(73,55)"/>
<path d="M0 0 C0 3.59857954 -0.95830515 5.09451118 -3 8 C-3.66 8 -4.32 8 -5 8 C-5.33 9.32 -5.66 10.64 -6 12 C-6.9375 9.9375 -6.9375 9.9375 -7 7 C-4.92608855 4.37232162 -2.52709628 2.18678905 0 0 Z " fill="#DADADA" transform="translate(180,176)"/>
<path d="M0 0 C0.99 0 1.98 0 3 0 C3 0.99 3 1.98 3 3 C-1.76307437 3.95261487 -6.1666528 4.08333357 -11 4 C-7.36576791 1.67409146 -4.22911669 1.83734167 0 2 C0 1.34 0 0.68 0 0 Z " fill="#40B0D8" transform="translate(125,171)"/>
<path d="M0 0 C0.66 0 1.32 0 2 0 C1.55530671 5.03985731 -0.71343362 7.37634988 -4 11 C-4 7.80389448 -3.45328458 6.58282374 -2 3.8125 C-1.62875 3.09707031 -1.2575 2.38164062 -0.875 1.64453125 C-0.441875 0.83048828 -0.441875 0.83048828 0 0 Z " fill="#5EAFD0" transform="translate(157,147)"/>
<path d="M0 0 C4.20626034 1.50223584 5.73900021 4.28550034 8 8 C7.67 8.66 7.34 9.32 7 10 C5.82438854 8.90536178 4.6597511 7.79892814 3.5 6.6875 C2.52546875 5.76517578 2.52546875 5.76517578 1.53125 4.82421875 C0 3 0 3 0 0 Z " fill="#02182B" transform="translate(136,104)"/>
<path d="M0 0 C3.27725968 0.05958654 3.94187595 0.22850076 6.625 2.375 C7.12 3.035 7.615 3.695 8.125 4.375 C5.155 3.88 5.155 3.88 2.125 3.375 C2.125 2.715 2.125 2.055 2.125 1.375 C-0.515 1.705 -3.155 2.035 -5.875 2.375 C-3.875 0.375 -3.875 0.375 0 0 Z " fill="#B7E9F6" transform="translate(85.875,98.625)"/>
<path d="M0 0 C1.98 0 3.96 0 6 0 C2.70675477 2.19549682 -0.48187121 4.17811188 -4 6 C-4.99 5.67 -5.98 5.34 -7 5 C-4.64046906 2.64046906 -3.22104383 2.50858587 0 2 C0 1.34 0 0.68 0 0 Z " fill="#59A0C1" transform="translate(101,96)"/>
<path d="M0 0 C0.66 0 1.32 0 2 0 C1.67 0.66 1.34 1.32 1 2 C0.67 1.34 0.34 0.68 0 0 Z M-3.4375 0.9375 C-2.303125 0.958125 -1.16875 0.97875 0 1 C-0.33 2.65 -0.66 4.3 -1 6 C-3.91517292 4.92598892 -5.77810176 4.22189824 -8 2 C-7 1 -7 1 -3.4375 0.9375 Z " fill="#E6E6E6" transform="translate(83,170)"/>
<path d="M0 0 C0.66 0.66 1.32 1.32 2 2 C0.63016497 5.16115776 0.0109362 5.9927092 -3 8 C-4.19232613 10.05003955 -4.19232613 10.05003955 -5 12 C-5.66 11.34 -6.32 10.68 -7 10 C-3.535 5.05 -3.535 5.05 0 0 Z " fill="#DFDFDF" transform="translate(190,163)"/>
<path d="M0 0 C0.75 1.75 0.75 1.75 1 4 C-0.625 6.3125 -0.625 6.3125 -3 8 C-5.6875 7.875 -5.6875 7.875 -8 7 C-8.33 6.34 -8.66 5.68 -9 5 C-6.36 5 -3.72 5 -1 5 C-0.67 3.35 -0.34 1.7 0 0 Z " fill="#B3EBF9" transform="translate(134,161)"/>
<path d="M0 0 C2.8125 -0.3125 2.8125 -0.3125 6 0 C7.9375 2.375 7.9375 2.375 9 5 C8.67 5.66 8.34 6.32 8 7 C6.66382648 6.02471263 5.3311249 5.04466681 4 4.0625 C3.2575 3.51722656 2.515 2.97195312 1.75 2.41015625 C1.1725 1.94480469 0.595 1.47945313 0 1 C0 0.67 0 0.34 0 0 Z " fill="#419AB8" transform="translate(129,98)"/>
<path d="M0 0 C0 3.21812786 -0.05758039 4.4664092 -2 7 C-5.625 7.75 -5.625 7.75 -9 8 C-6.21751321 5.06293061 -3.12061789 2.56584137 0 0 Z " fill="#CEF6FD" transform="translate(149,162)"/>
<path d="M0 0 C2.475 0.495 2.475 0.495 5 1 C6.125 5.75 6.125 5.75 5 8 C4.34 8 3.68 8 3 8 C2.87625 6.865625 2.7525 5.73125 2.625 4.5625 C2.41875 3.386875 2.2125 2.21125 2 1 C1.34 0.67 0.68 0.34 0 0 Z " fill="#D4F7FC" transform="translate(128,158)"/>
<path d="M0 0 C0.99 0.33 1.98 0.66 3 1 C0.9859524 4.0210714 -0.63279613 5.60667426 -4 7 C-2.92598892 4.08482708 -2.22189824 2.22189824 0 0 Z " fill="#101010" transform="translate(189,160)"/>
<path d="M0 0 C1.60332791 -0.08121924 3.20784026 -0.13929134 4.8125 -0.1875 C6.15248047 -0.23970703 6.15248047 -0.23970703 7.51953125 -0.29296875 C10.41647515 0.04918998 11.22555028 0.75393573 13 3 C8.62065881 2.48041715 4.31196609 1.94324258 0 1 C0 0.67 0 0.34 0 0 Z " fill="#D7F9FC" transform="translate(123,79)"/>
<path d="M0 0 C3.79588866 0.54226981 5.47211993 2.20127563 8 5 C5.37886292 5 3.49064888 4.68707555 1 4 C0.67 2.68 0.34 1.36 0 0 Z " fill="#E5E5E5" transform="translate(152,57)"/>
<path d="M0 0 C1.98 0.99 3.96 1.98 6 3 C5.67 3.99 5.34 4.98 5 6 C1.83884224 4.63016497 1.0072908 4.0109362 -1 1 C-0.67 0.67 -0.34 0.34 0 0 Z " fill="#0E0E0E" transform="translate(71,170)"/>
<path d="M0 0 C0 3.20395416 -0.74335022 5.09399739 -2 8 C-2.99 8 -3.98 8 -5 8 C-4.64950425 4.75791433 -4.43778819 3.38472296 -1.9375 1.1875 C-1.298125 0.795625 -0.65875 0.40375 0 0 Z " fill="#FAF9F8" transform="translate(150,166)"/>
<path d="M0 0 C1.32 0.33 2.64 0.66 4 1 C0.535 3.97 0.535 3.97 -3 7 C-2 3 -2 3 0 0 Z " fill="#5EB3D5" transform="translate(147,160)"/>
<path d="M0 0 C4.31392226 0.4793247 6.16569547 1.7457985 9 5 C6.03 4.505 6.03 4.505 3 4 C2.67 3.01 2.34 2.02 2 1 C1.34 0.67 0.68 0.34 0 0 Z " fill="#051429" transform="translate(126,98)"/>
<path d="M0 0 C0.33 0.99 0.66 1.98 1 3 C-1.875 3.625 -1.875 3.625 -5 4 C-5.66 3.34 -6.32 2.68 -7 2 C-4.35261084 0.5393715 -3.10551666 0 0 0 Z " fill="#091C27" transform="translate(107,97)"/>
<path d="M0 0 C-2.90092502 1.93395001 -3.89674737 2.30131941 -7.1875 2.625 C-8.445625 2.74875 -9.70375 2.8725 -11 3 C-8.21756596 -1.17365106 -4.53441502 -0.22300402 0 0 Z " fill="#D6F9FC" transform="translate(107,79)"/>
<path d="M0 0 C2.97 1.65 5.94 3.3 9 5 C9 5.66 9 6.32 9 7 C5.88626628 5.50079488 2.87771795 3.91847864 0 2 C0 1.34 0 0.68 0 0 Z " fill="#56ACCD" transform="translate(138,85)"/>
</svg>