<svg width="64" height="64" viewBox="0 0 64 64" fill="none" xmlns="http://www.w3.org/2000/svg">
<path d="M64 0H0V64H64V0Z" fill="white"/>
<path d="M17.6781 16.3963L36.6187 15.0015C38.9445 14.802 39.5429 14.9356 41.0048 15.9976L47.0508 20.2469C48.0485 20.9777 48.3809 21.1766 48.3809 21.9732V45.2798C48.3809 46.7404 47.8488 47.6042 45.9885 47.7364L23.9931 49.0646C22.5966 49.1313 21.9319 48.9322 21.2006 48.0021L16.7482 42.2253C15.9504 41.1621 15.6187 40.3665 15.6187 39.4358V18.7194C15.6187 17.5248 16.1509 16.5285 17.6781 16.3963Z" fill="white"/>
<path fill-rule="evenodd" clip-rule="evenodd" d="M36.6187 15.0015L17.6781 16.3963C16.1509 16.5285 15.6187 17.5248 15.6187 18.7194V39.4358C15.6187 40.3665 15.9504 41.1621 16.7482 42.2253L21.2006 48.0021C21.9319 48.9322 22.5966 49.1313 23.9931 49.0646L45.9885 47.7364C47.8488 47.6042 48.3809 46.7404 48.3809 45.2798V21.9732C48.3809 21.2182 48.0822 21.0001 47.2015 20.3571C47.153 20.3217 47.1029 20.285 47.0508 20.2469L41.0048 15.9976C39.5429 14.9356 38.9445 14.802 36.6187 15.0015ZM24.4918 21.591C22.696 21.7122 22.288 21.7398 21.2681 20.9113L18.6748 18.853C18.4103 18.5868 18.5429 18.2547 19.207 18.1889L37.4161 16.8608C38.9442 16.7277 39.7415 17.2598 40.3399 17.7244L43.463 19.9822C43.596 20.0483 43.9277 20.4462 43.5288 20.4462L24.7236 21.5753C24.6445 21.5807 24.5661 21.586 24.4918 21.591ZM22.3972 45.0802V25.2938C22.3972 24.4308 22.6631 24.0321 23.4601 23.9651L45.0573 22.704C45.7897 22.6376 46.1214 23.1027 46.1214 23.9651V43.6187C46.1214 44.4826 45.9882 45.214 44.7916 45.2798L24.1247 46.4756C22.9286 46.5413 22.3972 46.1436 22.3972 45.0802ZM42.7996 26.3552C42.9321 26.9534 42.7996 27.551 42.2003 27.6183L41.2045 27.8167V42.4242C40.3399 42.889 39.5427 43.1545 38.8783 43.1545C37.8147 43.1545 37.5482 42.8223 36.7515 41.8269L30.2381 31.6015V41.4949L32.2992 41.96C32.2992 41.96 32.2992 43.1545 30.6362 43.1545L26.052 43.4205C25.9188 43.1545 26.052 42.4911 26.5171 42.3582L27.7133 42.0266V28.9459L26.0523 28.8127C25.9191 28.2145 26.2509 27.3521 27.1819 27.2851L32.0997 26.9537L38.8783 37.3121V28.1486L37.1501 27.9503C37.0174 27.2191 37.5482 26.688 38.2129 26.6222L42.7996 26.3552Z" fill="black"/>
</svg>
