<svg width="64" height="64" viewBox="0 0 64 64" fill="none" xmlns="http://www.w3.org/2000/svg">
<path d="M64 0H0V64H64V0Z" fill="white"/>
<path d="M42.0561 41.5374C42.3225 39.3182 42.2426 38.9928 43.8956 39.3523L44.3152 39.3891C45.5862 39.4469 47.2489 39.1847 48.2256 38.7309C50.3283 37.7552 51.5752 36.1263 49.5018 36.5543C44.7724 37.5299 44.4473 35.9285 44.4473 35.9285C49.4413 28.5186 51.5289 19.1125 49.7269 16.81C44.812 10.5298 36.3044 13.4996 36.1621 13.5767L36.1167 13.5851C35.1823 13.3912 34.1365 13.2753 32.9617 13.2564C30.8215 13.2212 29.1975 13.8174 27.9656 14.7518C27.9656 14.7518 12.7885 8.49897 13.4946 22.6154C13.6448 25.6183 17.799 45.3383 22.7537 39.382C24.5646 37.2039 26.3146 35.3623 26.3146 35.3623C27.1837 35.9397 28.2241 36.2342 29.3153 36.1284L29.3997 36.0565C29.3732 36.3269 29.3849 36.5914 29.4334 36.9045C28.1572 38.3307 28.5322 38.5811 25.9804 39.1064C23.3986 39.6385 24.9154 40.5858 25.9054 40.8334C27.106 41.1337 29.8833 41.559 31.7604 38.9317L31.6857 39.2315C32.1864 39.6321 32.1526 42.1106 32.2235 43.8815C32.2946 45.6525 32.4132 47.3051 32.7742 48.2794C33.1352 49.2536 33.5611 51.7632 36.9149 51.0445C39.7178 50.4438 41.8608 49.5794 42.0561 41.5374Z" fill="black" stroke="black" stroke-width="3.51628"/>
<path d="M49.5027 36.5542C44.7729 37.5299 44.4477 35.9285 44.4477 35.9285C49.4417 28.5181 51.5294 19.1118 49.7277 16.8096C44.8128 10.5298 36.3049 13.4997 36.1629 13.5768L36.1172 13.585C35.1827 13.391 34.1369 13.2755 32.9616 13.2563C30.8214 13.2212 29.1979 13.8174 27.9661 14.7516C27.9661 14.7516 12.7887 8.49901 13.4946 22.6153C13.6447 25.6185 17.7989 45.3385 22.7537 39.3821C24.5647 37.2041 26.3145 35.3625 26.3145 35.3625C27.1837 35.9398 28.2241 36.2343 29.3148 36.1286L29.3995 36.0566C29.3732 36.327 29.3853 36.5916 29.4335 36.9047C28.157 38.3308 28.5321 38.5812 25.9805 39.1065C23.3985 39.6386 24.9153 40.586 25.9056 40.8336C27.1062 41.1338 29.8837 41.5591 31.7604 38.9319L31.6856 39.2317C32.1857 39.6322 32.5369 41.8373 32.4781 43.8362C32.4192 45.8352 32.3799 47.2076 32.774 48.2795C33.1681 49.3515 33.5608 51.7634 36.9152 51.0446C39.7181 50.4439 41.1706 48.8874 41.3727 46.2909C41.5161 44.445 41.8406 44.7179 41.8611 43.0675L42.1213 42.2862C42.4215 39.784 42.169 38.9767 43.8959 39.3522L44.3155 39.3891C45.5865 39.4469 47.25 39.1846 48.2263 38.7308C50.3286 37.7552 51.5754 36.1262 49.5025 36.5542H49.5027Z" fill="#336791"/>
<path d="M31.9594 37.9885C31.8292 42.6445 31.9921 47.333 32.4477 48.4725C32.9036 49.6119 33.8791 51.8282 37.2338 51.1095C40.0364 50.5087 41.0562 49.3459 41.4987 46.7793C41.8246 44.891 42.4529 39.6468 42.5335 38.5723" stroke="white" stroke-width="1.17209" stroke-linecap="round" stroke-linejoin="round"/>
<path d="M27.9401 14.6476C27.9401 14.6476 12.7524 8.44005 13.4584 22.5564C13.6086 25.5595 17.763 45.2801 22.7178 39.3235C24.5284 37.1452 26.1659 35.4368 26.1659 35.4368" stroke="white" stroke-width="1.17209" stroke-linecap="round" stroke-linejoin="round"/>
<path d="M36.1442 13.5145C35.6185 13.6794 44.5925 10.2339 49.6926 16.7508C51.4941 19.053 49.4065 28.4594 44.4126 35.8699" stroke="white" stroke-width="1.17209" stroke-linecap="round" stroke-linejoin="round"/>
<path d="M44.4146 35.8699C44.4146 35.8699 44.74 37.4718 49.47 36.4955C51.5424 36.0675 50.2952 37.6966 48.1934 38.6728C46.4684 39.4733 42.6011 39.6785 42.5379 38.5722C42.3753 35.7179 44.5732 36.5851 44.4146 35.8699ZM44.4146 35.8699C44.2712 35.2258 43.2883 34.5936 42.6381 33.0172C42.0704 31.6413 34.8529 21.0895 44.6397 22.6566C44.9982 22.5825 42.0872 13.3474 32.9281 13.1973C23.771 13.0471 24.0715 24.4585 24.0715 24.4585" stroke="white" stroke-width="1.17209" stroke-linecap="round" stroke-linejoin="bevel"/>
<path d="M29.3962 36.8461C28.1196 38.2721 28.495 38.5225 25.9432 39.048C23.3612 39.5802 24.8782 40.5274 25.8682 40.7749C27.0688 41.0753 29.8463 41.5006 31.723 38.8727C32.2946 38.0726 31.7197 36.796 30.9346 36.4705C30.5553 36.3134 30.0481 36.1165 29.3962 36.8461Z" stroke="white" stroke-width="1.17209" stroke-linecap="round" stroke-linejoin="round"/>
<path d="M29.3136 36.8211C29.1849 35.9826 29.5891 34.9849 30.0222 33.8176C30.673 32.0662 32.1748 30.3145 30.9735 24.7588C30.078 20.6187 24.0721 23.8972 24.0683 24.4586C24.0647 25.0197 24.34 27.3039 23.968 29.9638C23.4826 33.4348 26.1766 36.3703 29.2787 36.07" stroke="white" stroke-width="1.17209" stroke-linecap="round" stroke-linejoin="round"/>
<path d="M27.8861 24.3744C27.8591 24.5661 28.2371 25.0777 28.7301 25.1461C29.2223 25.2147 29.6435 24.8149 29.6702 24.6234C29.697 24.4317 29.3193 24.2205 28.8261 24.1518C28.3337 24.0831 27.9123 24.1831 27.8862 24.3744H27.8861Z" fill="white" stroke="white" stroke-width="0.390694"/>
<path d="M42.8769 23.9835C42.9036 24.1752 42.5259 24.6868 42.0329 24.7552C41.5403 24.8238 41.1191 24.424 41.0921 24.2325C41.066 24.0408 41.4438 23.8296 41.9364 23.7609C42.429 23.6923 42.8502 23.7922 42.8769 23.9836V23.9835Z" fill="white" stroke="white" stroke-width="0.195347"/>
<path d="M44.639 22.6566C44.7202 24.1605 44.3151 25.1849 44.2641 26.7859C44.1885 29.1129 45.3735 31.7764 43.5879 34.4432" stroke="white" stroke-width="1.17209" stroke-linecap="round" stroke-linejoin="round"/>
</svg>
