<svg xmlns="http://www.w3.org/2000/svg" viewBox="0 0 25.6 25.6" width="25" height="25">
  <g transform="translate(-.1 .1)">
    <path d="M18.983 18.636c.163-1.357.114-1.555 1.126-1.336l.257.023c.777.035 1.794-.125 2.394-.403 1.287-.596 2.05-1.592.782-1.33-2.895.596-3.094-.383-3.094-.383 3.056-4.532 4.335-10.283 3.231-11.69-3.009-3.838-8.22-2.024-8.306-1.977l-.028.005a9.53 9.53 0 0 0-1.931-.201c-1.31-.022-2.305.343-3.059.914 0 0-9.291-3.825-8.859 4.81.092 1.836 2.635 13.89 5.668 10.248 1.109-1.332 2.18-2.459 2.18-2.459.532.353 1.169.533 1.837.468l.052-.044c-.016.165-.009.327.021.519-.781.872-.552 1.025-2.114 1.347-1.58.325-.652.905-.046 1.056.735.184 2.435.444 3.584-1.163l-.046.183c.307.245.286 1.76.33 2.842.043 1.083.116 2.094.337 2.69.221.596.482 2.13 2.534 1.691 1.716-.367 3.027-.896 3.147-5.814" fill="#336791"/>
    <path d="M23.535 15.6c-2.895.596-3.094-.383-3.094-.383 3.056-4.532 4.335-10.283 3.231-11.69C20.663-.311 15.45 1.503 15.365 1.55l-.028.005a9.53 9.53 0 0 0-1.931-.201c-1.31-.022-2.305.343-3.059.914 0 0-9.291-3.825-8.859 4.81.092 1.836 2.635 13.89 5.668 10.248 1.109-1.332 2.18-2.459 2.18-2.459.532.353 1.169.533 1.837.468l.052-.044c-.016.165-.009.327.021.519-.781.872-.552 1.025-2.114 1.347-1.58.325-.652.905-.046 1.056.735.184 2.435.444 3.584-1.163l-.046.183c.307.245.521 1.593.485 2.816-.036 1.223-.077 2.06.234 2.713.31.652.62 2.19 3.22 1.74 2.172-.377 3.303-1.355 3.462-2.985.113-1.16.37-.99.385-2.03l.205-.643c.235-1.983.037-2.623 1.75-2.326l.257.023c.777.035 1.794-.125 2.394-.403 1.287-.596 2.05-1.592.782-1.33z" fill="#336791"/>
    <path d="M12.2 13.88c-.12.744-.345 1.287-.49 1.75l.016.303c-.205-.873-.552-1.025-2.114-1.347-1.58-.325-.652.905-.046 1.056.735.184 2.435.444 3.584-1.163" fill="none" stroke="#fff" stroke-width=".716" stroke-linecap="round" stroke-linejoin="round"/>
    <path d="M19.983 5.3c0-.02.002.02 0 0m.134-.512c-.053-.291-.178-.536-.373-.727-.467-.457-1.249-.544-2.149-.217a5.597 5.597 0 0 0-.382.164s-.16-1.7-.207-1.92a.094.094 0 0 0-.003-.02c-.194-.923-.612-1.813-1.37-2.098-.307-.116-.67-.128-.997-.094l-.062.008c-.04.009-.076.02-.112.032-.535.167-.879.53-1.098 1.052-.293.7-.337 1.63-.347 2.3-.004.33.002.59.002.59s-.532-.483-1.225-.615c-.62-.118-1.34-.013-1.867.346-.28.19-.507.467-.617.82-.054.172-.08.357-.08.548.004.52.183 1.104.39 1.56.097.215.2.404.283.542.085.14.154.236.154.236l-.016.024c-.222.328-.37.674-.463 1.033-.066.26-.105.53-.122.814-.027.427-.006.887.065 1.4.066.47.13.86.222 1.249.043.174.09.348.138.535l.016.049c.019.077.038.155.056.237.084.382.142.722.166 1.052.022.32.014.606-.053.901l-.032.125" fill="none" stroke="#fff" stroke-width=".43" stroke-linecap="round" stroke-linejoin="round"/>
    <path d="M11.096 12.24c-.005.292-.01.568.064.897.049.22.14.47.293.728.154.26.37.532.672.777 0 0-.004.155-.003.377.002.188.011.437.057.708.046.271.128.56.299.831" fill="none" stroke="#fff" stroke-width=".43" stroke-linecap="round" stroke-linejoin="round"/>
  </g>
</svg>
