<svg width="64" height="64" viewBox="0 0 64 64" fill="none" xmlns="http://www.w3.org/2000/svg">
<path d="M64 0H0V64H64V0Z" fill="white"/>
<path d="M28.1311 19.4061C29.619 17.8651 31.6914 16.8909 33.9764 16.8909C37.023 16.8909 39.6623 18.5913 41.0793 21.1066C42.3015 20.5574 43.6654 20.2563 45.1001 20.2563C50.5912 20.2563 55.0194 24.7377 55.0194 30.2642C55.0194 35.7906 50.5734 40.272 45.1001 40.272C44.427 40.272 43.7717 40.2011 43.1517 40.0771C41.9118 42.2913 39.5383 43.7969 36.8105 43.7969C35.6768 43.7969 34.5963 43.5312 33.6398 43.0706C32.3822 46.0287 29.4419 48.1188 26.0233 48.1188C22.463 48.1188 19.4163 45.8693 18.2473 42.6987C17.7336 42.8049 17.2022 42.8581 16.6708 42.8581C12.4197 42.8581 8.9834 39.3863 8.9834 35.0821C8.9834 32.2126 10.5244 29.6973 12.8271 28.3512C12.3489 27.2707 12.0832 26.0662 12.0832 24.7908C12.0655 19.8844 16.0863 15.8812 21.0105 15.8812C23.9154 15.8812 26.5015 17.2628 28.1311 19.4061Z" fill="#00A1E0"/>
<path d="M15.6358 32.6023L15.8306 32.0886C15.866 32.0001 15.9192 32.0355 15.9546 32.0532C16.0077 32.0886 16.0432 32.1063 16.114 32.1595C16.6631 32.5137 17.1768 32.5137 17.3362 32.5137C17.7436 32.5137 18.0093 32.3012 18.0093 32.0001V31.9823C18.0093 31.6635 17.6196 31.5395 17.1591 31.3978L17.0528 31.3624C16.4328 31.1853 15.7598 30.9196 15.7598 30.1402V30.1225C15.7598 29.3785 16.362 28.8471 17.2299 28.8471H17.3185C17.8322 28.8471 18.3104 28.9888 18.6647 29.2191C18.7001 29.2368 18.7355 29.2723 18.7178 29.3254C18.7001 29.3785 18.5407 29.7859 18.523 29.8391C18.4876 29.9276 18.399 29.8745 18.399 29.8745C18.0802 29.6974 17.6019 29.5734 17.1945 29.5734C16.8225 29.5734 16.5923 29.7682 16.5923 30.0339V30.0516C16.5923 30.3527 16.9997 30.4944 17.4602 30.6362L17.5488 30.6539C18.1687 30.8487 18.8241 31.1144 18.8241 31.8761V31.8938C18.8241 32.7086 18.2396 33.2045 17.3008 33.2045C16.8402 33.2045 16.3974 33.1337 15.9192 32.8857C15.8306 32.8326 15.742 32.7971 15.6535 32.7263C15.6358 32.6909 15.6003 32.6731 15.6358 32.6023ZM29.4519 32.6023L29.6467 32.0886C29.6821 32.0001 29.753 32.0355 29.7707 32.0532C29.8238 32.0886 29.8593 32.1063 29.9301 32.1595C30.4792 32.5137 30.9929 32.5137 31.1523 32.5137C31.5597 32.5137 31.8254 32.3012 31.8254 32.0001V31.9823C31.8254 31.6635 31.4357 31.5395 30.9752 31.3978L30.8689 31.3624C30.249 31.1853 29.5759 30.9196 29.5759 30.1402V30.1225C29.5759 29.3785 30.1781 28.8471 31.046 28.8471H31.1346C31.6483 28.8471 32.1265 28.9888 32.4808 29.2191C32.5162 29.2368 32.5516 29.2723 32.5339 29.3254C32.5162 29.3785 32.3568 29.7859 32.3391 29.8391C32.3037 29.9276 32.2151 29.8745 32.2151 29.8745C31.8963 29.6974 31.418 29.5734 31.0106 29.5734C30.6386 29.5734 30.4084 29.7682 30.4084 30.0339V30.0516C30.4084 30.3527 30.8158 30.4944 31.2763 30.6362L31.3649 30.6539C31.9848 30.8487 32.6402 31.1144 32.6402 31.8761V31.8938C32.6402 32.7086 32.0557 33.2045 31.1169 33.2045C30.6564 33.2045 30.2135 33.1337 29.7353 32.8857C29.6467 32.8326 29.5582 32.7971 29.4696 32.7263C29.4696 32.6909 29.4342 32.6731 29.4519 32.6023ZM39.69 30.1756C39.7608 30.4413 39.814 30.7247 39.814 31.0258C39.814 31.327 39.7785 31.6104 39.69 31.8761C39.6191 32.1418 39.4951 32.372 39.3357 32.5669C39.1763 32.7617 38.9637 32.9211 38.7335 33.0274C38.4855 33.1337 38.2021 33.1868 37.8832 33.1868C37.5644 33.1868 37.281 33.1337 37.033 33.0274C36.785 32.9211 36.5902 32.7617 36.4308 32.5669C36.2714 32.372 36.1474 32.1418 36.0765 31.8761C36.0057 31.6104 35.9525 31.327 35.9525 31.0258C35.9525 30.7247 35.988 30.4413 36.0765 30.1756C36.1474 29.9099 36.2714 29.6797 36.4308 29.4848C36.5902 29.29 36.8028 29.1306 37.033 29.0243C37.281 28.918 37.5644 28.8471 37.8832 28.8471C38.2021 28.8471 38.4855 28.9003 38.7335 29.0243C38.9815 29.1306 39.1763 29.29 39.3357 29.4848C39.4951 29.6797 39.6191 29.9099 39.69 30.1756ZM38.8929 31.0081C38.8929 30.5476 38.8043 30.1933 38.6449 29.9453C38.4855 29.6974 38.2198 29.5734 37.8832 29.5734C37.529 29.5734 37.281 29.6974 37.1216 29.9453C36.9622 30.1933 36.8736 30.5476 36.8736 31.0081C36.8736 31.4687 36.9622 31.8229 37.1216 32.0886C37.281 32.3366 37.529 32.4606 37.8832 32.4606C38.2375 32.4606 38.4855 32.3366 38.6449 32.0886C38.822 31.8406 38.8929 31.4687 38.8929 31.0081ZM46.1729 32.3366L46.3678 32.868C46.3855 32.9388 46.3323 32.9566 46.3323 32.9566C46.0312 33.0805 45.6238 33.1514 45.2164 33.1514C44.5256 33.1514 44.0119 32.9566 43.6577 32.5669C43.3034 32.1772 43.1263 31.6458 43.1263 30.9904C43.1263 30.6893 43.1617 30.4059 43.2503 30.1402C43.3388 29.8745 43.4628 29.6442 43.64 29.4494C43.8171 29.2545 44.0296 29.0951 44.2776 28.9888C44.5256 28.8826 44.8267 28.8117 45.1633 28.8117C45.3935 28.8117 45.5884 28.8294 45.7478 28.8471C45.9249 28.8826 46.1729 28.9357 46.2792 28.9888C46.2969 28.9888 46.35 29.0243 46.3323 29.0774C46.2615 29.29 46.2083 29.4317 46.1375 29.6088C46.1021 29.6974 46.0489 29.6619 46.0489 29.6619C45.7832 29.5734 45.5352 29.5379 45.2164 29.5379C44.8267 29.5379 44.5256 29.6619 44.3485 29.9276C44.1536 30.1756 44.0474 30.5122 44.0474 30.9727C44.0474 31.4687 44.1713 31.8229 44.3839 32.0532C44.5965 32.2835 44.8976 32.3897 45.2873 32.3897C45.4467 32.3897 45.5884 32.372 45.7124 32.3543C45.8364 32.3366 45.9604 32.3012 46.0844 32.248C46.0666 32.2835 46.1375 32.2657 46.1729 32.3366ZM50.1938 30.0162C50.3709 30.6184 50.2823 31.1321 50.2646 31.1675C50.2646 31.2384 50.1938 31.2384 50.1938 31.2384H47.5191C47.5368 31.6458 47.6254 31.9292 47.8379 32.124C48.0328 32.3189 48.3339 32.4429 48.759 32.4429C49.3967 32.4429 49.6624 32.3189 49.8572 32.248C49.8572 32.248 49.9281 32.2303 49.9635 32.3012L50.1406 32.7971C50.176 32.8857 50.1406 32.9034 50.1229 32.9211C49.9635 33.0097 49.5561 33.1868 48.7767 33.1868C48.4047 33.1868 48.0682 33.1337 47.8025 33.0274C47.5368 32.9211 47.3065 32.7794 47.1294 32.5846C46.9523 32.3897 46.8283 32.1595 46.7397 31.9115C46.6512 31.6458 46.6157 31.3624 46.6157 31.0613C46.6157 30.7601 46.6512 30.4767 46.7397 30.211C46.8106 29.9453 46.9346 29.7151 47.094 29.5202C47.2534 29.3254 47.466 29.166 47.7139 29.0597C47.9619 28.9357 48.263 28.8826 48.5996 28.8826C48.883 28.8826 49.1487 28.9357 49.3612 29.042C49.5207 29.1128 49.6978 29.2368 49.8749 29.4317C49.9635 29.5025 50.1229 29.7682 50.1938 30.0162ZM47.5368 30.583H49.4321C49.4144 30.335 49.3612 30.1225 49.255 29.9453C49.0956 29.6974 48.8653 29.5557 48.511 29.5557C48.1568 29.5557 47.9088 29.6974 47.7494 29.9453C47.6431 30.1048 47.59 30.3173 47.5368 30.583ZM28.8142 30.0162C28.9913 30.6184 28.9028 31.1321 28.9028 31.1675C28.9028 31.2384 28.8319 31.2384 28.8319 31.2384H26.1573C26.175 31.6458 26.2635 31.9292 26.4761 32.124C26.6709 32.3189 26.9721 32.4429 27.3972 32.4429C28.0348 32.4429 28.3005 32.3189 28.4954 32.248C28.4954 32.248 28.5662 32.2303 28.6017 32.3012L28.7788 32.7971C28.8142 32.8857 28.7788 32.9034 28.7611 32.9211C28.6017 33.0097 28.1943 33.1868 27.4149 33.1868C27.0429 33.1868 26.7064 33.1337 26.4407 33.0274C26.175 32.9211 25.9447 32.7794 25.7676 32.5846C25.5905 32.3897 25.4665 32.1595 25.3779 31.9115C25.2893 31.6458 25.2539 31.3624 25.2539 31.0613C25.2539 30.7601 25.2893 30.4767 25.3779 30.211C25.4487 29.9453 25.5727 29.7151 25.7322 29.5202C25.8916 29.3254 26.1041 29.166 26.3521 29.0597C26.6001 28.9357 26.9012 28.8826 27.2378 28.8826C27.5212 28.8826 27.7869 28.9357 27.9994 29.042C28.1588 29.1128 28.336 29.2368 28.5131 29.4317C28.5839 29.5025 28.7611 29.7682 28.8142 30.0162ZM26.1573 30.583H28.0703C28.0526 30.335 27.9994 30.1225 27.8931 29.9453C27.7337 29.6974 27.5034 29.5557 27.1492 29.5557C26.7949 29.5557 26.5469 29.6974 26.3875 29.9453C26.2635 30.1048 26.2104 30.3173 26.1573 30.583ZM21.4633 30.4413C21.4633 30.4413 21.6759 30.459 21.9062 30.4944V30.3882C21.9062 30.0339 21.8353 29.8568 21.6936 29.7505C21.5519 29.6442 21.3216 29.5734 21.0382 29.5734C21.0382 29.5734 20.3828 29.5734 19.8692 29.8391C19.8514 29.8568 19.8337 29.8568 19.8337 29.8568C19.8337 29.8568 19.7629 29.8745 19.7452 29.8214L19.5503 29.3077C19.5149 29.2368 19.568 29.2014 19.568 29.2014C19.816 29.0066 20.3828 28.9003 20.3828 28.9003C20.5777 28.8649 20.8965 28.8294 21.0914 28.8294C21.6227 28.8294 22.0301 28.9534 22.3136 29.2014C22.597 29.4494 22.7387 29.8391 22.7387 30.3882V32.8326C22.7387 32.8326 22.7387 32.9034 22.6855 32.9211C22.6855 32.9211 22.5792 32.9566 22.4907 32.9743C22.4021 32.992 22.0833 33.0628 21.8176 33.0983C21.5519 33.1514 21.2862 33.1691 21.0028 33.1691C20.7371 33.1691 20.5068 33.1514 20.2943 33.0983C20.0817 33.0451 19.9046 32.9743 19.7452 32.868C19.6035 32.7617 19.4795 32.62 19.3909 32.4429C19.3023 32.2835 19.2669 32.0709 19.2669 31.8406C19.2669 31.6104 19.3201 31.3978 19.4086 31.2207C19.4972 31.0436 19.6389 30.9018 19.7983 30.7779C19.9577 30.6539 20.1526 30.583 20.3474 30.5122C20.56 30.459 20.7725 30.4236 21.0028 30.4236C21.2153 30.4413 21.3571 30.4413 21.4633 30.4413ZM20.4006 32.3189C20.4006 32.3189 20.6485 32.5137 21.1799 32.4783C21.5696 32.4606 21.9062 32.3897 21.9062 32.3897V31.1675C21.9062 31.1675 21.5696 31.1144 21.1799 31.1144C20.6308 31.1144 20.4006 31.3092 20.4006 31.3092C20.2411 31.4155 20.1703 31.5927 20.1703 31.8229C20.1703 31.9646 20.2057 32.0886 20.2588 32.1772C20.2766 32.2126 20.2943 32.248 20.4006 32.3189ZM42.9846 29.0774C42.9669 29.1483 42.8252 29.5202 42.7897 29.6442C42.772 29.6974 42.7366 29.7151 42.6835 29.7151C42.6835 29.7151 42.524 29.6797 42.3823 29.6797C42.2938 29.6797 42.1521 29.6974 42.0281 29.7328C41.9041 29.7682 41.7978 29.8391 41.6915 29.9276C41.5853 30.0162 41.5144 30.1579 41.4613 30.3173C41.4081 30.4767 41.3727 30.7424 41.3727 31.0258V33.0097C41.3727 33.0628 41.3373 33.0983 41.2841 33.0983H40.5756C40.5225 33.0983 40.4871 33.0628 40.4871 33.0097V29.0243C40.4871 28.9711 40.5225 28.9357 40.5579 28.9357H41.2487C41.3018 28.9357 41.3196 28.9711 41.3196 29.0243V29.3431C41.4258 29.2014 41.603 29.0774 41.7624 29.0066C41.9218 28.9357 42.1166 28.8826 42.4532 28.9003C42.6303 28.918 42.8606 28.9534 42.896 28.9711C42.9669 28.9888 43.0023 29.0066 42.9846 29.0774ZM36.4131 27.2353C36.4308 27.2353 36.4839 27.2707 36.4662 27.3238L36.2537 27.8906C36.2359 27.9261 36.2182 27.9615 36.1297 27.9261C36.1119 27.9261 36.0765 27.9084 35.988 27.8906C35.9348 27.8729 35.8463 27.8729 35.7754 27.8729C35.6691 27.8729 35.5806 27.8906 35.492 27.9084C35.4034 27.9261 35.3326 27.9792 35.2617 28.0501C35.1909 28.1209 35.12 28.2095 35.0669 28.3335C34.9606 28.6169 34.9252 28.918 34.9252 28.9357H35.7754C35.8463 28.9357 35.864 28.9711 35.864 29.0243L35.7577 29.5734C35.74 29.6619 35.6691 29.6442 35.6691 29.6442H34.7835L34.2167 33.0628C34.1458 33.4171 34.075 33.7182 33.9864 33.9662C33.8978 34.2142 33.7915 34.3913 33.6321 34.5684C33.4904 34.7278 33.331 34.8518 33.1362 34.905C32.959 34.9758 32.7288 35.0113 32.4808 35.0113C32.3568 35.0113 32.2328 35.0113 32.0911 34.9758C31.9848 34.9581 31.9317 34.9404 31.8431 34.905C31.8077 34.8873 31.79 34.8518 31.8077 34.7987C31.8254 34.7456 31.9848 34.3204 32.0025 34.2496C32.038 34.1787 32.0911 34.2142 32.0911 34.2142C32.1442 34.2319 32.1797 34.2496 32.2328 34.2673C32.3037 34.285 32.3745 34.285 32.4454 34.285C32.5694 34.285 32.6756 34.2673 32.7642 34.2319C32.8705 34.1965 32.9413 34.1256 33.0122 34.037C33.083 33.9485 33.1362 33.8245 33.207 33.6651C33.2602 33.5057 33.3133 33.2754 33.3664 33.0097L33.9687 29.6619H33.3842C33.3133 29.6619 33.2956 29.6265 33.2956 29.5734L33.4019 29.0243C33.4196 28.9357 33.4904 28.9534 33.4904 28.9534H34.0927L34.1281 28.7763C34.2167 28.2449 34.3938 27.8375 34.6595 27.5718C34.9252 27.3061 35.3149 27.1644 35.7931 27.1644C35.9348 27.1644 36.0588 27.1821 36.1651 27.1998C36.2359 27.1821 36.3245 27.1998 36.4131 27.2353ZM24.4745 32.992C24.4745 33.0451 24.4391 33.0805 24.4037 33.0805H23.6952C23.642 33.0805 23.6243 33.0451 23.6243 32.992V27.3061C23.6243 27.2707 23.6597 27.2176 23.6952 27.2176H24.4037C24.4568 27.2176 24.4745 27.253 24.4745 27.3061V32.992Z" fill="white"/>
</svg>
