<svg xmlns="http://www.w3.org/2000/svg" viewBox="0 0 109.5 124.5">
  <path d="M95.865 23.466c-.067-.529-.462-.793-.858-.86-.396-.066-8.455-.132-8.455-.132s-5.595-5.528-6.255-6.12c-.66-.662-1.914-.462-2.442-.33-.066 0-1.32.396-3.432 1.056-2.046-5.862-5.595-11.262-11.916-11.262h-.528C60.657 3.552 58.479 2.76 56.631 2.76c-14.718 0-21.765 18.375-23.979 27.72-5.727 1.782-9.819 3.036-10.347 3.168-3.168.99-3.3 1.122-3.696 4.092C18.345 39.63 9 115.236 9 115.236l67.254 12.606 36.498-7.92s-16.821-96.06-16.887-96.456zM67.308 18.732l-5.331 1.65c0-1.122 0-2.31-.132-3.63 3.3.462 5.133 4.158 5.463 1.98zm-8.853 2.706l-11.52 3.564c1.122-4.29 3.234-8.52 7.194-10.434.528 1.65.66 4.026.66 4.026.132 1.056.066 1.914-.334 2.844zM56.631 6.09c.924 0 1.782.33 2.574.924-4.818 2.244-9.966 7.92-12.144 19.248l-9.228 2.838C40.065 19.782 46.914 6.09 56.631 6.09z" fill="#95BF47"/>
  <path d="M95.007 22.606c-.396-.066-8.455-.132-8.455-.132s-5.595-5.528-6.255-6.12a1.632 1.632 0 00-.924-.396l-3.12 63.738 36.498-7.92S95.865 23.466 95.007 22.606z" fill="#5E8E3E"/>
  <path d="M62.307 42.576l-3.96 11.784s-3.498-1.848-7.722-1.848c-6.252 0-6.582 3.894-6.582 4.884 0 5.397 14.058 7.458 14.058 20.064 0 9.924-6.318 16.308-14.784 16.308-10.188 0-15.39-6.318-15.39-6.318l2.706-9.006s5.334 4.62 9.894 4.62a4.044 4.044 0 004.092-4.092c0-7.128-11.52-7.458-11.52-18.906 0-9.726 6.978-19.122 21.036-19.122a15.16 15.16 0 018.172 1.632z" fill="#FFF"/>
</svg>
