<svg width="64" height="64" viewBox="0 0 64 64" fill="none" xmlns="http://www.w3.org/2000/svg">
<path fill-rule="evenodd" clip-rule="evenodd" d="M25.6667 32.694C25.496 33.2428 25.1256 33.7302 24.58 34.0419L16.4995 38.6717C15.3582 39.3229 13.9042 38.9368 13.2492 37.8106C12.59 36.6781 12.978 35.2373 14.1183 34.5843L18.6343 32.0015L14.1183 29.4118C12.978 28.7597 12.5881 27.3187 13.2492 26.1903C13.9042 25.0612 15.3582 24.674 16.4995 25.3251L24.58 29.952C25.1482 30.2771 25.5279 30.7926 25.6874 31.3691C25.7411 31.5545 25.765 31.7398 25.7742 31.9261C25.7806 32.1827 25.7474 32.4426 25.6667 32.694ZM27.8593 37.0303C29.0899 37.1181 30.0614 38.1389 30.0614 39.3809V48.6379C30.0614 49.9433 28.9935 51 27.6825 51C26.3651 51 25.3014 49.9433 25.3014 48.6379V43.4603L20.7701 46.0512C19.6339 46.7074 18.1809 46.3192 17.5208 45.192C16.8648 44.0627 17.2528 42.6146 18.3911 41.9625L26.478 37.3385C26.9126 37.0871 27.3947 36.9908 27.8593 37.0303ZM36.1418 26.97C34.9083 26.8797 33.9387 25.8572 33.9387 24.6162V15.358C33.9387 14.0569 35.0005 13 36.3188 13C37.636 13 38.7 14.0569 38.7 15.358V20.5387L43.2281 17.9437C44.3665 17.2916 45.8202 17.6786 46.4764 18.806C47.1312 19.9395 46.7454 21.3813 45.6061 22.0334L37.5201 26.6615C37.0856 26.9097 36.6044 27.007 36.1418 26.97ZM18.3911 22.0334C17.2528 21.3813 16.8648 19.9395 17.5208 18.806C18.1809 17.6786 19.6339 17.2916 20.7701 17.9437L25.3014 20.5387V15.358C25.3014 14.0569 26.3651 13 27.6825 13C28.9935 13 30.0614 14.0569 30.0614 15.358V24.6162C30.0614 25.8572 29.0899 26.8797 27.8593 26.97C27.3947 27.007 26.9126 26.9097 26.478 26.6615L18.3911 22.0334ZM32.9145 36.2343C32.8181 36.3326 32.6328 36.4123 32.4921 36.4123H31.5039C31.3683 36.4123 31.1801 36.3326 31.0818 36.2343L27.7227 32.9062C27.6267 32.8121 27.5489 32.6236 27.5489 32.4911V31.5089C27.5489 31.3733 27.6267 31.185 27.7227 31.0896L31.0818 27.7606C31.1801 27.6635 31.3683 27.5857 31.5039 27.5857H32.4921C32.6299 27.5857 32.8181 27.6635 32.9145 27.7606L36.2754 31.0896C36.3715 31.185 36.4491 31.3733 36.4491 31.5089V32.4911C36.4491 32.6236 36.3715 32.8121 36.2754 32.9062L32.9145 36.2343ZM33.589 31.982C33.589 31.8473 33.5073 31.66 33.411 31.5606L32.4372 30.6C32.3421 30.5048 32.1529 30.4261 32.0173 30.4261H31.979C31.8434 30.4261 31.6551 30.5048 31.5607 30.6L30.5872 31.5606C30.4899 31.66 30.4153 31.8473 30.4153 31.982V32.0202C30.4153 32.1527 30.4899 32.338 30.5872 32.4353L31.5607 33.3979C31.6561 33.4932 31.8434 33.5717 31.979 33.5717H32.0173C32.1529 33.5717 32.3421 33.4932 32.4372 33.3979L33.411 32.4353C33.5073 32.338 33.589 32.1527 33.589 32.0202V31.982ZM45.6061 41.9625C46.7454 42.6146 47.1312 44.0627 46.4764 45.192C45.8202 46.3192 44.3653 46.7074 43.2281 46.0512L38.7 43.4603V48.6379C38.7 49.9433 37.636 51 36.3188 51C35.0005 51 33.9387 49.9433 33.9387 48.6379V39.3809C33.9387 38.1389 34.9083 37.1181 36.1418 37.0303C36.6044 36.9908 37.0856 37.0871 37.5201 37.3385L45.6061 41.9625ZM45.3649 32.0015L49.8808 34.5843C51.0212 35.2373 51.4114 36.6781 50.7522 37.8106C50.094 38.9368 48.6381 39.3229 47.5019 38.6717L39.415 34.0419C38.8748 33.7302 38.5012 33.2428 38.3347 32.694C38.2559 32.4426 38.2186 32.1827 38.2281 31.9261C38.2322 31.7398 38.26 31.5545 38.3117 31.3691C38.4732 30.7926 38.8531 30.2771 39.415 29.952L47.5019 25.3251C48.6381 24.674 50.094 25.0612 50.7522 26.1903C51.4114 27.3187 51.0212 28.7597 49.8808 29.4118L45.3649 32.0015Z" fill="#29B5E8"/>
</svg>
