<svg width="64" height="64" viewBox="0 0 64 64" fill="none" xmlns="http://www.w3.org/2000/svg">
<path fill-rule="evenodd" clip-rule="evenodd" d="M29.8643 25.948C29.8643 24.6696 30.9115 24.1664 32.6523 24.1664C35.1547 24.1664 38.3099 24.928 40.8123 26.2744V18.5496C38.0787 17.4616 35.3859 17.04 32.6659 17.04C25.9883 17.04 21.5547 20.5216 21.5547 26.3424C21.5547 35.4136 34.0531 33.972 34.0531 37.8888C34.0531 39.3984 32.7339 39.888 30.8979 39.888C28.1643 39.888 24.6827 38.7728 21.9219 37.2632V45.0832C24.9819 46.4024 28.0691 46.96 30.8979 46.96C37.7387 46.96 42.4443 43.5736 42.4443 37.6848C42.3899 27.8928 29.8643 29.6336 29.8643 25.948Z" fill="#635BFF"/>
</svg>
