<svg width="64" height="64" viewBox="0 0 64 64" fill="none" xmlns="http://www.w3.org/2000/svg">
<path d="M64 0H0V64H64V0Z" fill="white"/>
<path d="M34.9683 49.4713C34.0448 50.634 32.1726 49.997 32.1504 48.5123L31.8252 26.7968H46.4268C49.0714 26.7968 50.5464 29.8514 48.9019 31.9225L34.9683 49.4713Z" fill="url(#paint0_linear_260_9237)"/>
<path d="M34.9683 49.4713C34.0448 50.634 32.1726 49.997 32.1504 48.5123L31.8252 26.7968H46.4268C49.0714 26.7968 50.5464 29.8514 48.9019 31.9225L34.9683 49.4713Z" fill="url(#paint1_linear_260_9237)"/>
<path d="M29.0303 14.5291C29.9534 13.3663 31.826 14.0034 31.8479 15.4881L31.9906 37.2036H17.5718C14.9269 37.2036 13.4519 34.1489 15.0967 32.0775L29.0303 14.5291Z" fill="#3ECF8E"/>
<defs>
<linearGradient id="paint0_linear_260_9237" x1="14.4051" y1="21.4054" x2="37.9037" y2="33.974" gradientUnits="userSpaceOnUse">
<stop stop-color="#249361"/>
<stop offset="1" stop-color="#3ECF8E"/>
</linearGradient>
<linearGradient id="paint1_linear_260_9237" x1="3.01089" y1="9.17256" x2="10.8847" y2="28.0755" gradientUnits="userSpaceOnUse">
<stop stop-opacity="0.2"/>
<stop offset="1" stop-opacity="0"/>
</linearGradient>
</defs>
</svg>
