<svg xmlns="http://www.w3.org/2000/svg" version="1.1" xmlns:xlink="http://www.w3.org/1999/xlink" width="1000" height="1000"><style>
    #light-icon {
      display: inline;
    }
    #dark-icon {
      display: none;
    }

    @media (prefers-color-scheme: dark) {
      #light-icon {
        display: none;
      }
      #dark-icon {
        display: inline;
      }
    }
  </style><g id="light-icon"><svg xmlns="http://www.w3.org/2000/svg" version="1.1" xmlns:xlink="http://www.w3.org/1999/xlink" width="1000" height="1000"><g><g transform="matrix(2.7777777777777777,0,0,2.7777777777777777,0,25)"><svg xmlns="http://www.w3.org/2000/svg" version="1.1" xmlns:xlink="http://www.w3.org/1999/xlink" width="360" height="342"><svg width="360" height="342" viewBox="0 0 360 342" fill="none" xmlns="http://www.w3.org/2000/svg">
<path fill-rule="evenodd" clip-rule="evenodd" d="M15.976 123.988L6.57599 170.588C6.07599 173.088 4.77598 176.288 6.37598 178.488C7.07598 179.488 9.27598 180.588 10.376 180.088L50.276 158.788C55.276 156.088 55.776 155.588 61.776 156.988C64.476 157.588 67.176 158.188 69.976 158.688C71.976 158.988 73.676 159.488 75.176 161.088C76.076 162.088 76.276 162.788 76.876 163.788C89.876 186.388 108.976 202.988 132.576 213.788C140.276 217.288 148.176 219.988 156.376 222.188C159.476 222.988 167.776 224.588 170.076 226.588L175.176 231.088L138.676 260.988L102.576 255.188C100.576 254.888 98.576 256.088 98.276 258.088C97.976 260.088 99.476 261.888 101.476 262.188L139.476 268.288L99.376 289.488C97.576 290.388 96.776 292.588 97.676 294.388C98.676 296.188 100.976 296.688 102.676 295.788L147.976 271.888L171.276 286.388C172.976 287.388 175.276 287.088 176.376 285.388C177.476 283.688 176.676 281.388 175.076 280.288L149.676 264.488L156.576 259.488C162.576 255.088 168.476 250.788 174.476 246.388C181.376 241.288 188.376 235.988 195.376 231.088C198.676 228.788 201.976 228.888 205.776 228.488L218.276 227.088H218.576C220.376 227.088 222.076 227.488 223.576 228.688C224.276 229.188 224.676 229.788 225.176 230.188C231.976 235.688 239.576 238.088 248.276 238.088C251.676 238.088 254.976 237.788 258.276 237.288C260.876 236.888 263.676 236.288 266.276 236.188L274.676 235.888L252.876 297.588H209.476C207.476 297.588 205.676 299.088 205.676 301.188C205.676 303.188 207.476 304.788 209.476 304.788H250.276L219.076 328.788C217.476 329.988 216.976 332.288 218.276 333.988C219.476 335.588 221.876 335.688 223.476 334.488L258.476 307.588C258.676 307.388 258.976 307.188 259.176 306.988L260.876 304.888H293.976C295.976 304.888 297.776 303.388 297.776 301.288C297.776 299.288 295.976 297.688 293.976 297.688H265.076L281.876 246.888C283.576 242.088 285.276 237.288 286.876 232.388C288.776 226.688 291.976 226.788 295.376 223.188C297.376 221.088 298.976 212.788 299.676 209.988L301.776 199.288L301.976 198.788C302.976 196.088 308.276 191.488 310.476 189.288C340.676 159.288 354.076 110.288 354.176 68.6878C354.176 59.6878 351.076 22.9878 347.376 15.9878C346.276 13.7878 343.576 14.1878 341.676 15.1878L303.076 36.0878L300.476 34.8878C253.876 14.0878 212.576 12.8878 166.876 37.5878L161.976 40.2878L159.176 35.3878C156.776 31.2878 140.276 18.7878 135.776 16.4878C107.876 2.08778 81.076 1.88777 53.276 16.5878C21.376 33.5878 -0.224006 79.6878 14.576 114.188C15.976 117.788 16.976 120.088 15.976 123.988Z" fill="#FFFF66"></path>
<path fill-rule="evenodd" clip-rule="evenodd" d="M335.876 36.4878C342.476 87.6878 333.176 143.988 295.276 181.888C284.276 192.888 288.476 186.888 286.576 199.288C286.176 201.888 284.976 211.888 283.376 213.288C269.876 225.588 242.076 225.788 229.176 214.888C223.576 210.088 225.576 209.988 221.076 210.688C201.976 213.388 181.976 212.888 162.576 207.288C130.376 197.788 107.776 183.088 89.876 154.588C88.176 151.888 86.876 148.988 85.376 146.188C83.976 143.488 82.776 143.388 79.876 143.188C56.776 141.988 38.576 133.288 30.076 110.788C18.276 79.8878 35.576 44.4878 63.976 30.6878C91.576 17.2878 125.176 23.2878 145.976 46.3878C147.276 47.7878 148.276 49.0878 150.076 50.8878C155.376 56.1878 158.276 61.7878 166.476 56.5878C202.776 33.5878 246.476 29.0878 286.476 46.5878C307.376 55.7878 298.476 57.2878 318.576 46.0878L335.876 36.4878ZM286.076 77.8878C276.176 101.788 271.776 111.588 252.076 129.688C226.776 152.788 179.076 151.588 168.476 114.888C168.176 113.988 168.176 112.888 166.976 112.088C163.776 109.888 160.176 112.388 157.976 114.388C156.376 115.888 155.276 117.688 154.976 119.888C147.176 173.688 252.276 193.388 294.076 113.788C297.276 107.688 307.476 87.7878 301.576 79.9878C298.276 75.6878 288.976 71.1878 286.076 77.8878ZM293.976 291.788H273.076L287.376 248.688C289.076 243.688 290.776 239.188 292.376 234.088C293.476 230.588 295.976 230.988 299.676 226.988C302.876 223.588 304.376 215.488 305.376 210.988L307.376 200.788C307.776 199.888 313.376 194.488 314.576 193.388C346.076 162.088 359.876 111.588 359.976 68.6878C359.976 58.9878 356.776 21.3878 352.476 13.2878C349.776 8.18778 343.776 7.48777 338.976 10.1878L302.876 29.7878C262.676 11.8878 217.876 3.68777 164.176 32.6878C161.476 27.9878 144.776 14.7878 138.476 11.4878C108.476 -3.91222 79.676 -3.81223 50.676 11.6878C16.076 30.0878 -6.62402 79.3878 9.37598 116.688C10.276 118.788 11.176 120.188 10.476 122.788L1.07599 169.488C-0.0240113 175.088 -0.92403 177.988 1.77597 181.888C4.47597 185.788 9.97597 186.988 13.276 185.288L53.176 163.988C56.676 162.088 56.076 161.688 60.676 162.688C63.276 163.288 66.376 163.988 69.176 164.388C71.576 164.788 70.976 164.888 71.976 166.688C104.576 223.088 163.576 228.488 166.376 230.988L137.176 254.988L103.576 249.588C98.376 248.788 93.476 252.188 92.676 257.288C91.876 262.388 95.476 267.188 100.676 268.088L121.576 271.488L96.776 284.588C92.076 287.088 90.276 292.788 92.676 297.288C95.076 301.788 100.876 303.488 105.476 301.088L147.876 278.688L168.376 291.488C172.876 294.288 178.776 292.988 181.476 288.588C184.176 284.188 182.776 278.388 178.276 275.588L160.176 264.288C169.376 257.588 196.276 237.788 198.876 235.988C200.176 235.088 199.976 235.088 206.576 234.388L218.776 232.988C220.576 232.988 220.476 233.688 221.776 234.788C239.776 249.388 259.876 242.288 266.676 242.088L249.176 291.988H209.876C204.576 291.988 200.276 296.188 200.276 301.388C200.276 306.488 204.576 310.788 209.876 310.788H233.676L215.976 324.388C211.776 327.588 210.976 333.588 214.076 337.688C217.176 341.788 223.176 342.488 227.376 339.288L262.376 312.388C262.976 311.888 263.476 311.388 263.976 310.788H294.376C299.676 310.788 303.976 306.588 303.976 301.388C303.576 295.988 299.176 291.788 293.976 291.788ZM21.576 159.788L25.176 143.888L35.476 152.188L21.576 159.788ZM71.776 77.0878C80.676 77.0878 87.876 84.2878 87.876 93.1878C87.876 102.088 80.676 109.288 71.776 109.288C62.876 109.288 55.676 102.088 55.676 93.1878C55.676 84.2878 62.876 77.0878 71.776 77.0878Z" fill="black"></path>
</svg></svg></g></g></svg></g><g id="dark-icon"><svg xmlns="http://www.w3.org/2000/svg" version="1.1" xmlns:xlink="http://www.w3.org/1999/xlink" width="1000" height="1000"><g clip-path="url(#SvgjsClipPath1186)"><rect width="1000" height="1000" fill="#99ffff"></rect><g transform="matrix(1.9444444444444444,0,0,1.9444444444444444,150,167.5)"><svg xmlns="http://www.w3.org/2000/svg" version="1.1" xmlns:xlink="http://www.w3.org/1999/xlink" width="360" height="342"><svg width="360" height="342" viewBox="0 0 360 342" fill="none" xmlns="http://www.w3.org/2000/svg">
<path fill-rule="evenodd" clip-rule="evenodd" d="M15.976 123.988L6.57599 170.588C6.07599 173.088 4.77598 176.288 6.37598 178.488C7.07598 179.488 9.27598 180.588 10.376 180.088L50.276 158.788C55.276 156.088 55.776 155.588 61.776 156.988C64.476 157.588 67.176 158.188 69.976 158.688C71.976 158.988 73.676 159.488 75.176 161.088C76.076 162.088 76.276 162.788 76.876 163.788C89.876 186.388 108.976 202.988 132.576 213.788C140.276 217.288 148.176 219.988 156.376 222.188C159.476 222.988 167.776 224.588 170.076 226.588L175.176 231.088L138.676 260.988L102.576 255.188C100.576 254.888 98.576 256.088 98.276 258.088C97.976 260.088 99.476 261.888 101.476 262.188L139.476 268.288L99.376 289.488C97.576 290.388 96.776 292.588 97.676 294.388C98.676 296.188 100.976 296.688 102.676 295.788L147.976 271.888L171.276 286.388C172.976 287.388 175.276 287.088 176.376 285.388C177.476 283.688 176.676 281.388 175.076 280.288L149.676 264.488L156.576 259.488C162.576 255.088 168.476 250.788 174.476 246.388C181.376 241.288 188.376 235.988 195.376 231.088C198.676 228.788 201.976 228.888 205.776 228.488L218.276 227.088H218.576C220.376 227.088 222.076 227.488 223.576 228.688C224.276 229.188 224.676 229.788 225.176 230.188C231.976 235.688 239.576 238.088 248.276 238.088C251.676 238.088 254.976 237.788 258.276 237.288C260.876 236.888 263.676 236.288 266.276 236.188L274.676 235.888L252.876 297.588H209.476C207.476 297.588 205.676 299.088 205.676 301.188C205.676 303.188 207.476 304.788 209.476 304.788H250.276L219.076 328.788C217.476 329.988 216.976 332.288 218.276 333.988C219.476 335.588 221.876 335.688 223.476 334.488L258.476 307.588C258.676 307.388 258.976 307.188 259.176 306.988L260.876 304.888H293.976C295.976 304.888 297.776 303.388 297.776 301.288C297.776 299.288 295.976 297.688 293.976 297.688H265.076L281.876 246.888C283.576 242.088 285.276 237.288 286.876 232.388C288.776 226.688 291.976 226.788 295.376 223.188C297.376 221.088 298.976 212.788 299.676 209.988L301.776 199.288L301.976 198.788C302.976 196.088 308.276 191.488 310.476 189.288C340.676 159.288 354.076 110.288 354.176 68.6878C354.176 59.6878 351.076 22.9878 347.376 15.9878C346.276 13.7878 343.576 14.1878 341.676 15.1878L303.076 36.0878L300.476 34.8878C253.876 14.0878 212.576 12.8878 166.876 37.5878L161.976 40.2878L159.176 35.3878C156.776 31.2878 140.276 18.7878 135.776 16.4878C107.876 2.08778 81.076 1.88777 53.276 16.5878C21.376 33.5878 -0.224006 79.6878 14.576 114.188C15.976 117.788 16.976 120.088 15.976 123.988Z" fill="#FFFF66"></path>
<path fill-rule="evenodd" clip-rule="evenodd" d="M335.876 36.4878C342.476 87.6878 333.176 143.988 295.276 181.888C284.276 192.888 288.476 186.888 286.576 199.288C286.176 201.888 284.976 211.888 283.376 213.288C269.876 225.588 242.076 225.788 229.176 214.888C223.576 210.088 225.576 209.988 221.076 210.688C201.976 213.388 181.976 212.888 162.576 207.288C130.376 197.788 107.776 183.088 89.876 154.588C88.176 151.888 86.876 148.988 85.376 146.188C83.976 143.488 82.776 143.388 79.876 143.188C56.776 141.988 38.576 133.288 30.076 110.788C18.276 79.8878 35.576 44.4878 63.976 30.6878C91.576 17.2878 125.176 23.2878 145.976 46.3878C147.276 47.7878 148.276 49.0878 150.076 50.8878C155.376 56.1878 158.276 61.7878 166.476 56.5878C202.776 33.5878 246.476 29.0878 286.476 46.5878C307.376 55.7878 298.476 57.2878 318.576 46.0878L335.876 36.4878ZM286.076 77.8878C276.176 101.788 271.776 111.588 252.076 129.688C226.776 152.788 179.076 151.588 168.476 114.888C168.176 113.988 168.176 112.888 166.976 112.088C163.776 109.888 160.176 112.388 157.976 114.388C156.376 115.888 155.276 117.688 154.976 119.888C147.176 173.688 252.276 193.388 294.076 113.788C297.276 107.688 307.476 87.7878 301.576 79.9878C298.276 75.6878 288.976 71.1878 286.076 77.8878ZM293.976 291.788H273.076L287.376 248.688C289.076 243.688 290.776 239.188 292.376 234.088C293.476 230.588 295.976 230.988 299.676 226.988C302.876 223.588 304.376 215.488 305.376 210.988L307.376 200.788C307.776 199.888 313.376 194.488 314.576 193.388C346.076 162.088 359.876 111.588 359.976 68.6878C359.976 58.9878 356.776 21.3878 352.476 13.2878C349.776 8.18778 343.776 7.48777 338.976 10.1878L302.876 29.7878C262.676 11.8878 217.876 3.68777 164.176 32.6878C161.476 27.9878 144.776 14.7878 138.476 11.4878C108.476 -3.91222 79.676 -3.81223 50.676 11.6878C16.076 30.0878 -6.62402 79.3878 9.37598 116.688C10.276 118.788 11.176 120.188 10.476 122.788L1.07599 169.488C-0.0240113 175.088 -0.92403 177.988 1.77597 181.888C4.47597 185.788 9.97597 186.988 13.276 185.288L53.176 163.988C56.676 162.088 56.076 161.688 60.676 162.688C63.276 163.288 66.376 163.988 69.176 164.388C71.576 164.788 70.976 164.888 71.976 166.688C104.576 223.088 163.576 228.488 166.376 230.988L137.176 254.988L103.576 249.588C98.376 248.788 93.476 252.188 92.676 257.288C91.876 262.388 95.476 267.188 100.676 268.088L121.576 271.488L96.776 284.588C92.076 287.088 90.276 292.788 92.676 297.288C95.076 301.788 100.876 303.488 105.476 301.088L147.876 278.688L168.376 291.488C172.876 294.288 178.776 292.988 181.476 288.588C184.176 284.188 182.776 278.388 178.276 275.588L160.176 264.288C169.376 257.588 196.276 237.788 198.876 235.988C200.176 235.088 199.976 235.088 206.576 234.388L218.776 232.988C220.576 232.988 220.476 233.688 221.776 234.788C239.776 249.388 259.876 242.288 266.676 242.088L249.176 291.988H209.876C204.576 291.988 200.276 296.188 200.276 301.388C200.276 306.488 204.576 310.788 209.876 310.788H233.676L215.976 324.388C211.776 327.588 210.976 333.588 214.076 337.688C217.176 341.788 223.176 342.488 227.376 339.288L262.376 312.388C262.976 311.888 263.476 311.388 263.976 310.788H294.376C299.676 310.788 303.976 306.588 303.976 301.388C303.576 295.988 299.176 291.788 293.976 291.788ZM21.576 159.788L25.176 143.888L35.476 152.188L21.576 159.788ZM71.776 77.0878C80.676 77.0878 87.876 84.2878 87.876 93.1878C87.876 102.088 80.676 109.288 71.776 109.288C62.876 109.288 55.676 102.088 55.676 93.1878C55.676 84.2878 62.876 77.0878 71.776 77.0878Z" fill="black"></path>
</svg></svg></g></g><defs><clipPath id="SvgjsClipPath1186"><rect width="1000" height="1000" x="0" y="0" rx="0" ry="0"></rect></clipPath></defs></svg></g></svg>