<svg xmlns="http://www.w3.org/2000/svg" version="1.1" xmlns:xlink="http://www.w3.org/1999/xlink" width="1000" height="1000"><g clip-path="url(#SvgjsClipPath1145)"><rect width="1000" height="1000" fill="#99ffff"></rect><g transform="matrix(2.0224719101123596,0,0,2.0224719101123596,50,50)"><svg xmlns="http://www.w3.org/2000/svg" version="1.1" xmlns:xlink="http://www.w3.org/1999/xlink" width="445" height="445"><svg width="445" height="445" viewBox="0 0 445 445" fill="none" xmlns="http://www.w3.org/2000/svg">
<path fill-rule="evenodd" clip-rule="evenodd" d="M50.976 183.988L41.576 230.588C41.076 233.088 39.776 236.288 41.376 238.488C42.076 239.488 44.276 240.588 45.376 240.088L85.276 218.788C90.276 216.088 90.776 215.588 96.776 216.988C99.476 217.588 102.176 218.188 104.976 218.688C106.976 218.988 108.676 219.488 110.176 221.088C111.076 222.088 111.276 222.788 111.876 223.788C124.876 246.388 143.976 262.988 167.576 273.788C175.276 277.288 183.176 279.988 191.376 282.188C194.476 282.988 202.776 284.588 205.076 286.588L210.176 291.088L173.676 320.988L137.576 315.188C135.576 314.888 133.576 316.088 133.276 318.088C132.976 320.088 134.476 321.888 136.476 322.188L174.476 328.288L134.376 349.488C132.576 350.388 131.776 352.588 132.676 354.388C133.676 356.188 135.976 356.688 137.676 355.788L182.976 331.888L206.276 346.388C207.976 347.388 210.276 347.088 211.376 345.388C212.476 343.688 211.676 341.388 210.076 340.288L184.676 324.488L191.576 319.488C197.576 315.088 203.476 310.788 209.476 306.388C216.376 301.288 223.376 295.988 230.376 291.088C233.676 288.788 236.976 288.888 240.776 288.488L253.276 287.088H253.576C255.376 287.088 257.076 287.488 258.576 288.688C259.276 289.188 259.676 289.788 260.176 290.188C266.976 295.688 274.576 298.088 283.276 298.088C286.676 298.088 289.976 297.788 293.276 297.288C295.876 296.888 298.676 296.288 301.276 296.188L309.676 295.888L287.876 357.588H244.476C242.476 357.588 240.676 359.088 240.676 361.188C240.676 363.188 242.476 364.788 244.476 364.788H285.276L254.076 388.788C252.476 389.988 251.976 392.288 253.276 393.988C254.476 395.588 256.876 395.688 258.476 394.488L293.476 367.588C293.676 367.388 293.976 367.188 294.176 366.988L295.876 364.888H328.976C330.976 364.888 332.776 363.388 332.776 361.288C332.776 359.288 330.976 357.688 328.976 357.688H300.076L316.876 306.888C318.576 302.088 320.276 297.288 321.876 292.388C323.776 286.688 326.976 286.788 330.376 283.188C332.376 281.088 333.976 272.788 334.676 269.988L336.776 259.288L336.976 258.788C337.976 256.088 343.276 251.488 345.476 249.288C375.676 219.288 389.076 170.288 389.176 128.688C389.176 119.688 386.076 82.9878 382.376 75.9878C381.276 73.7878 378.576 74.1878 376.676 75.1878L338.076 96.0878L335.476 94.8878C288.876 74.0878 247.576 72.8878 201.876 97.5878L196.976 100.288L194.176 95.3878C191.776 91.2878 175.276 78.7878 170.776 76.4878C142.876 62.0878 116.076 61.8878 88.276 76.5878C56.376 93.5878 34.776 139.688 49.576 174.188C50.976 177.788 51.976 180.088 50.976 183.988Z" fill="#FFFF66"></path>
<path fill-rule="evenodd" clip-rule="evenodd" d="M370.876 96.4878C377.476 147.688 368.176 203.988 330.276 241.888C319.276 252.888 323.476 246.888 321.576 259.288C321.176 261.888 319.976 271.888 318.376 273.288C304.876 285.588 277.076 285.788 264.176 274.888C258.576 270.088 260.576 269.988 256.076 270.688C236.976 273.388 216.976 272.888 197.576 267.288C165.376 257.788 142.776 243.088 124.876 214.588C123.176 211.888 121.876 208.988 120.376 206.188C118.976 203.488 117.776 203.388 114.876 203.188C91.776 201.988 73.576 193.288 65.076 170.788C53.276 139.888 70.576 104.488 98.976 90.6878C126.576 77.2878 160.176 83.2878 180.976 106.388C182.276 107.788 183.276 109.088 185.076 110.888C190.376 116.188 193.276 121.788 201.476 116.588C237.776 93.5878 281.476 89.0878 321.476 106.588C342.376 115.788 333.476 117.288 353.576 106.088L370.876 96.4878ZM321.076 137.888C311.176 161.788 306.776 171.588 287.076 189.688C261.776 212.788 214.076 211.588 203.476 174.888C203.176 173.988 203.176 172.888 201.976 172.088C198.776 169.888 195.176 172.388 192.976 174.388C191.376 175.888 190.276 177.688 189.976 179.888C182.176 233.688 287.276 253.388 329.076 173.788C332.276 167.688 342.476 147.788 336.576 139.988C333.276 135.688 323.976 131.188 321.076 137.888ZM328.976 351.788H308.076L322.376 308.688C324.076 303.688 325.776 299.188 327.376 294.088C328.476 290.588 330.976 290.988 334.676 286.988C337.876 283.588 339.376 275.488 340.376 270.988L342.376 260.788C342.776 259.888 348.376 254.488 349.576 253.388C381.076 222.088 394.876 171.588 394.976 128.688C394.976 118.988 391.776 81.3878 387.476 73.2878C384.776 68.1878 378.776 67.4878 373.976 70.1878L337.876 89.7878C297.676 71.8878 252.876 63.6878 199.176 92.6878C196.476 87.9878 179.776 74.7878 173.476 71.4878C143.476 56.0878 114.676 56.1878 85.676 71.6878C51.076 90.0878 28.376 139.388 44.376 176.688C45.276 178.788 46.176 180.188 45.476 182.788L36.076 229.488C34.976 235.088 34.076 237.988 36.776 241.888C39.476 245.788 44.976 246.988 48.276 245.288L88.176 223.988C91.676 222.088 91.076 221.688 95.676 222.688C98.276 223.288 101.376 223.988 104.176 224.388C106.576 224.788 105.976 224.888 106.976 226.688C139.576 283.088 198.576 288.488 201.376 290.988L172.176 314.988L138.576 309.588C133.376 308.788 128.476 312.188 127.676 317.288C126.876 322.388 130.476 327.188 135.676 328.088L156.576 331.488L131.776 344.588C127.076 347.088 125.276 352.788 127.676 357.288C130.076 361.788 135.876 363.488 140.476 361.088L182.876 338.688L203.376 351.488C207.876 354.288 213.776 352.988 216.476 348.588C219.176 344.188 217.776 338.388 213.276 335.588L195.176 324.288C204.376 317.588 231.276 297.788 233.876 295.988C235.176 295.088 234.976 295.088 241.576 294.388L253.776 292.988C255.576 292.988 255.476 293.688 256.776 294.788C274.776 309.388 294.876 302.288 301.676 302.088L284.176 351.988H244.876C239.576 351.988 235.276 356.188 235.276 361.388C235.276 366.488 239.576 370.788 244.876 370.788H268.676L250.976 384.388C246.776 387.588 245.976 393.588 249.076 397.688C252.176 401.788 258.176 402.488 262.376 399.288L297.376 372.388C297.976 371.888 298.476 371.388 298.976 370.788H329.376C334.676 370.788 338.976 366.588 338.976 361.388C338.576 355.988 334.176 351.788 328.976 351.788ZM56.576 219.788L60.176 203.888L70.476 212.188L56.576 219.788ZM106.776 137.088C115.676 137.088 122.876 144.288 122.876 153.188C122.876 162.088 115.676 169.288 106.776 169.288C97.876 169.288 90.676 162.088 90.676 153.188C90.676 144.288 97.876 137.088 106.776 137.088Z" fill="black"></path>
</svg></svg></g></g><defs><clipPath id="SvgjsClipPath1145"><rect width="1000" height="1000" x="0" y="0" rx="100" ry="100"></rect></clipPath></defs></svg>