<svg width="24" height="24" viewBox="0 0 24 24" fill="none" xmlns="http://www.w3.org/2000/svg">
<path fill-rule="evenodd" clip-rule="evenodd" d="M6.7513 17.2177L6.36835 15.977H2.83617L2.45217 17.2177H0L3.54574 7.00308H5.65983L9.24939 17.2177H6.7513ZM4.61009 9.92065L3.38922 14.1238H5.80174L4.61009 9.92065ZM9.52174 7.00308H11.8487V17.2177H9.52174V7.00308ZM12.4748 15.1307C12.5791 14.6267 12.7638 14.1436 13.0216 13.7012C13.2449 13.3266 13.5245 12.9916 13.8511 12.7088C14.185 12.424 14.5377 12.1662 14.9082 11.9356C15.2003 11.7603 15.4717 11.5913 15.7231 11.4316C15.9548 11.2855 16.175 11.1227 16.3826 10.9433C16.5621 10.7888 16.7134 10.6041 16.8292 10.3954C16.9409 10.1878 16.9962 9.95404 16.993 9.71717C16.993 9.30813 16.8845 9.01386 16.6664 8.83439C16.4378 8.65053 16.1509 8.55465 15.8577 8.56412C15.5239 8.55465 15.2 8.67813 14.9572 8.90743C14.7162 9.13595 14.5951 9.51786 14.5951 10.0532H12.313C12.3087 9.60929 12.388 9.16856 12.5468 8.75404C12.6991 8.36065 12.9339 8.00691 13.2355 7.71786C13.5548 7.41526 13.9315 7.18152 14.3416 7.0323C14.8228 6.85875 15.3316 6.77424 15.8431 6.78291C16.2814 6.78082 16.7197 6.84239 17.1412 6.96552C17.5336 7.07717 17.903 7.26499 18.2264 7.5196C18.5447 7.7763 18.8003 8.10604 18.9715 8.48273C19.1645 8.91995 19.2584 9.39578 19.248 9.87578C19.2532 10.2827 19.1603 10.6834 18.9777 11.0445C18.8035 11.3867 18.5812 11.7019 18.3183 11.9773C18.0616 12.2476 17.7788 12.4886 17.4751 12.7005C17.1725 12.9092 16.897 13.0866 16.6518 13.2326C16.3117 13.4664 16.0299 13.6678 15.8077 13.8379C15.6166 13.9801 15.4385 14.139 15.2755 14.3126C15.1527 14.4427 15.0586 14.5969 14.999 14.7655C14.9444 14.94 14.9184 15.1222 14.9217 15.305H19.177V17.2177H12.2838C12.2715 16.5172 12.3355 15.8174 12.4748 15.1307ZM19.6174 8.79682C20.015 8.80511 20.4124 8.76836 20.8017 8.68726C21.0626 8.63612 21.3068 8.52447 21.5176 8.3596C21.6877 8.21456 21.8097 8.02152 21.8723 7.80447C21.9433 7.5436 21.9767 7.2723 21.9715 7.001H24V17.2177H21.6595V10.4612H19.6174V8.79682Z" fill="#E91E63"/>
</svg>
