<svg width="24" height="24" viewBox="0 0 24 24" fill="none" xmlns="http://www.w3.org/2000/svg">
<g clip-path="url(#clip0_718_19613)">
<path d="M6.8968 4H6.8728L6.8418 6.615H6.8638C8.5788 6.615 9.9098 7.972 12.8038 12.861L12.9788 13.158L12.9908 13.178L14.6108 10.74L14.5988 10.721C14.2448 10.1414 13.8787 9.56929 13.5008 9.005C13.1287 8.44813 12.7368 7.90478 12.3258 7.376C10.4128 4.932 8.8128 4 6.8968 4Z" fill="url(#paint0_linear_718_19613)"/>
<path d="M6.87277 4C4.94977 4.01 3.24677 5.258 2.01977 7.17C2.01642 7.17566 2.01309 7.18133 2.00977 7.187L4.26377 8.418L4.27477 8.401C4.99277 7.318 5.88477 6.627 6.84277 6.616H6.86377L6.89577 4H6.87277Z" fill="url(#paint1_linear_718_19613)"/>
<path d="M2.01855 7.17L2.00755 7.187C1.19955 8.447 0.597555 9.995 0.273555 11.664L0.268555 11.686L2.80255 12.286L2.80655 12.264C3.07655 10.797 3.59255 9.436 4.26255 8.419L4.27355 8.402L2.01855 7.17Z" fill="url(#paint2_linear_718_19613)"/>
<path d="M2.807 12.264L0.274 11.664L0.269 11.686C0.092 12.604 0.002 13.537 0 14.472V14.495L2.598 14.728V14.705C2.58855 13.8868 2.65888 13.0696 2.808 12.265L2.807 12.264Z" fill="url(#paint3_linear_718_19613)"/>
<path d="M2.67712 15.537C2.63053 15.2684 2.60413 14.9966 2.59812 14.724V14.702L0.000123105 14.468V14.492C-0.00279248 15.046 0.0460868 15.5991 0.146123 16.144L2.68112 15.559C2.67977 15.5517 2.67844 15.5443 2.67712 15.537Z" fill="url(#paint4_linear_718_19613)"/>
<path d="M3.2696 16.89C2.9856 16.58 2.7856 16.134 2.6806 15.562L2.6766 15.541L0.141602 16.126L0.145602 16.147C0.337602 17.157 0.713602 17.997 1.2516 18.634L1.2656 18.651L3.2836 16.906C3.27857 16.9007 3.27457 16.8954 3.2696 16.89Z" fill="url(#paint5_linear_718_19613)"/>
<path d="M10.78 9.65401C9.25195 12.004 8.32595 13.479 8.32595 13.479C6.29095 16.679 5.58695 17.396 4.45495 17.396C4.23233 17.4018 4.01109 17.3594 3.80639 17.2717C3.60168 17.1841 3.41835 17.0532 3.26895 16.888L1.25195 18.632L1.26595 18.649C2.00995 19.518 3.05795 20 4.35595 20C6.31895 20 7.72995 19.072 10.24 14.67L12.006 11.54C11.6142 10.9003 11.206 10.2714 10.78 9.65401Z" fill="#0082FB"/>
<path d="M13.5022 5.94601L13.4862 5.96201C13.0862 6.39201 12.7002 6.87001 12.3262 7.37801C12.7042 7.86101 13.0942 8.40201 13.5012 9.00801C13.9812 8.26501 14.4292 7.66301 14.8682 7.20101L14.8842 7.18501L13.5022 5.94601Z" fill="url(#paint6_linear_718_19613)"/>
<path d="M20.9183 5.713C19.8533 4.633 18.5833 4 17.2253 4C15.7933 4 14.5883 4.787 13.5023 5.944L13.4863 5.96L14.8683 7.2L14.8843 7.183C15.5993 6.436 16.2923 6.063 17.0603 6.063C17.8863 6.063 18.6603 6.453 19.3303 7.138L19.3453 7.154L20.9343 5.729L20.9183 5.713Z" fill="#0082FB"/>
<path d="M23.9981 14.125C23.9381 10.658 22.7281 7.559 20.9341 5.729L20.9181 5.713L19.3301 7.137L19.3451 7.153C20.6951 8.545 21.6221 11.133 21.7061 14.124V14.147H23.9981V14.125Z" fill="url(#paint7_linear_718_19613)"/>
<path d="M23.998 14.15V14.127H21.706V14.149C21.71 14.289 21.712 14.431 21.712 14.573C21.712 15.388 21.591 16.047 21.344 16.523L21.333 16.545L23.041 18.327L23.054 18.307C23.674 17.347 24 16.014 24 14.397C24 14.314 24 14.232 23.998 14.15Z" fill="url(#paint8_linear_718_19613)"/>
<path d="M21.344 16.52L21.333 16.54C21.119 16.942 20.814 17.21 20.416 17.327L21.194 19.789C21.344 19.7383 21.4903 19.6775 21.632 19.607C22.1858 19.3271 22.6567 18.9072 22.998 18.389L23.042 18.324L23.054 18.304L21.344 16.52Z" fill="url(#paint9_linear_718_19613)"/>
<path d="M19.9203 17.393C19.6583 17.393 19.4283 17.354 19.2023 17.253L18.4043 19.775C18.8533 19.928 19.3313 19.997 19.8643 19.997C20.3563 19.997 20.8073 19.924 21.2163 19.782L20.4363 17.32C20.2693 17.37 20.0963 17.395 19.9203 17.393Z" fill="url(#paint10_linear_718_19613)"/>
<path d="M18.3227 16.534L18.3087 16.517L16.4727 18.431L16.4887 18.448C17.1257 19.13 17.7347 19.553 18.4257 19.785L19.2227 17.265C18.9317 17.14 18.6497 16.912 18.3227 16.534Z" fill="url(#paint11_linear_718_19613)"/>
<path d="M18.3085 16.515C17.7585 15.873 17.0765 14.803 16.0055 13.075L14.6095 10.739L14.5985 10.719L12.9785 13.157L12.9905 13.177L13.9795 14.845C14.9385 16.455 15.7195 17.619 16.4725 18.43L16.4885 18.446L18.3225 16.532C18.3178 16.5263 18.3132 16.5207 18.3085 16.515Z" fill="url(#paint12_linear_718_19613)"/>
</g>
<defs>
<linearGradient id="paint0_linear_718_19613" x1="596.486" y1="822.668" x2="114.722" y2="189.353" gradientUnits="userSpaceOnUse">
<stop offset="0.0006" stop-color="#0867DF"/>
<stop offset="0.4539" stop-color="#0668E1"/>
<stop offset="0.8591" stop-color="#0064E0"/>
</linearGradient>
<linearGradient id="paint1_linear_718_19613" x1="107.889" y1="339.211" x2="451.638" y2="77.5835" gradientUnits="userSpaceOnUse">
<stop offset="0.1323" stop-color="#0064DF"/>
<stop offset="0.9988" stop-color="#0064E0"/>
</linearGradient>
<linearGradient id="paint2_linear_718_19613" x1="153.512" y1="463.144" x2="293.652" y2="109.3" gradientUnits="userSpaceOnUse">
<stop offset="0.0147" stop-color="#0072EC"/>
<stop offset="0.6881" stop-color="#0064DF"/>
</linearGradient>
<linearGradient id="paint3_linear_718_19613" x1="132.066" y1="288.006" x2="149.162" y2="60.1111" gradientUnits="userSpaceOnUse">
<stop offset="0.0731" stop-color="#007CF6"/>
<stop offset="0.9943" stop-color="#0072EC"/>
</linearGradient>
<linearGradient id="paint4_linear_718_19613" x1="139.834" y1="112.18" x2="134.921" y2="75.5056" gradientUnits="userSpaceOnUse">
<stop offset="0.0731" stop-color="#007FF9"/>
<stop offset="1" stop-color="#007CF6"/>
</linearGradient>
<linearGradient id="paint5_linear_718_19613" x1="118.56" y1="54.4222" x2="193.557" y2="214.006" gradientUnits="userSpaceOnUse">
<stop offset="0.0731" stop-color="#007FF9"/>
<stop offset="1" stop-color="#0082FB"/>
</linearGradient>
<linearGradient id="paint6_linear_718_19613" x1="101.365" y1="216.86" x2="191.807" y2="91.406" gradientUnits="userSpaceOnUse">
<stop offset="0.2799" stop-color="#007FF8"/>
<stop offset="0.9141" stop-color="#0082FB"/>
</linearGradient>
<linearGradient id="paint7_linear_718_19613" x1="223.611" y1="58.299" x2="424.502" y2="799.65" gradientUnits="userSpaceOnUse">
<stop stop-color="#0082FB"/>
<stop offset="0.9995" stop-color="#0081FA"/>
</linearGradient>
<linearGradient id="paint8_linear_718_19613" x1="181.5" y1="33.7032" x2="63.6408" y2="272.658" gradientUnits="userSpaceOnUse">
<stop offset="0.0619" stop-color="#0081FA"/>
<stop offset="1" stop-color="#0080F9"/>
</linearGradient>
<linearGradient id="paint9_linear_718_19613" x1="100.3" y1="210.437" x2="195.397" y2="145.464" gradientUnits="userSpaceOnUse">
<stop stop-color="#027AF3"/>
<stop offset="1" stop-color="#0080F9"/>
</linearGradient>
<linearGradient id="paint10_linear_718_19613" x1="75.8619" y1="154.456" x2="249.303" y2="154.456" gradientUnits="userSpaceOnUse">
<stop stop-color="#0377EF"/>
<stop offset="0.9994" stop-color="#0279F1"/>
</linearGradient>
<linearGradient id="paint11_linear_718_19613" x1="127.306" y1="131.871" x2="224.957" y2="189.518" gradientUnits="userSpaceOnUse">
<stop offset="0.0019" stop-color="#0471E9"/>
<stop offset="1" stop-color="#0377EF"/>
</linearGradient>
<linearGradient id="paint12_linear_718_19613" x1="185.344" y1="163.088" x2="504.319" y2="565.362" gradientUnits="userSpaceOnUse">
<stop offset="0.2765" stop-color="#0867DF"/>
<stop offset="1" stop-color="#0471E9"/>
</linearGradient>
<clipPath id="clip0_718_19613">
<rect width="24" height="24" fill="white"/>
</clipPath>
</defs>
</svg>
