<svg width="24" height="24" viewBox="0 0 24 24" fill="none" xmlns="http://www.w3.org/2000/svg">
<g clip-path="url(#clip0_1557_24264)">
<path d="M16.7578 1.51382L23.9648 5.67496L24 5.69547L23.9648 5.71597L16.7578 9.87613L16.7227 9.89664V7.69156C14.1408 7.57867 12.7158 7.55504 10.502 9.12613C8.09609 10.8335 7.6252 11.1644 6.68555 11.7101C7.53833 12.2117 8.07717 12.594 10.3613 14.215C12.5752 15.7861 14.0001 15.7615 16.582 15.6486V13.4435L16.6172 13.464L23.8242 17.6252L23.8594 17.6457L23.8242 17.6662L16.6172 21.8263L16.582 21.8468V19.9005C13.878 20.014 11.0918 19.9063 7.91992 17.6554C5.01989 15.5973 5.09401 15.6513 3.78809 14.9113C3.32199 14.6472 2.4984 14.3508 1.60742 14.1134C1.18383 14.0006 0.78772 13.9122 0.470704 13.8537C0.110607 13.7872 -0.029921 13.7814 5.86733e-07 13.7814V9.56265C0.0448969 9.56265 0.0917845 9.56551 0.140626 9.56754V9.55972C0.110704 9.55971 0.251228 9.55391 0.611329 9.48746C0.928347 9.42895 1.32446 9.34053 1.74805 9.22769C2.63903 8.99033 3.46262 8.69395 3.92871 8.42984C5.23463 7.68982 5.16051 7.74379 8.06055 5.6857C11.2324 3.4348 14.0186 3.32614 16.7227 3.43961V1.49332L16.7578 1.51382Z" fill="black"/>
</g>
<defs>
<clipPath id="clip0_1557_24264">
<rect width="24" height="24" fill="white"/>
</clipPath>
</defs>
</svg>
