<svg width="24" height="24" viewBox="0 0 24 24" fill="none" xmlns="http://www.w3.org/2000/svg">
<g clip-path="url(#clip0_683_3566)">
<path d="M22.2799 9.82275C22.8244 8.1885 22.6369 6.39825 21.7662 4.91175C20.4567 2.63175 17.8242 1.45875 15.2532 2.01075C14.1094 0.722254 12.4662 -0.0104955 10.7434 4.50591e-06C8.11542 -0.00599549 5.78367 1.686 4.97517 4.1865C3.28692 4.53225 1.82967 5.589 0.976921 7.08675C-0.342329 9.36075 -0.0415786 12.2273 1.72092 14.1773C1.17642 15.8115 1.36392 17.6018 2.23467 19.0883C3.54417 21.3683 6.17667 22.5413 8.74767 21.9893C9.89067 23.2778 11.5347 24.0105 13.2574 23.9993C15.8869 24.006 18.2194 22.3125 19.0279 19.8098C20.7162 19.464 22.1734 18.4073 23.0262 16.9095C24.3439 14.6355 24.0424 11.7713 22.2807 9.82125L22.2799 9.82275ZM13.2589 22.431C12.2067 22.4325 11.1874 22.0643 10.3797 21.39C10.4164 21.3705 10.4802 21.3353 10.5214 21.3098L15.3004 18.5498C15.5449 18.411 15.6949 18.1508 15.6934 17.8695V11.1323L17.7132 12.2985C17.7349 12.309 17.7492 12.33 17.7522 12.354V17.9333C17.7492 20.4143 15.7399 22.4258 13.2589 22.431ZM3.59592 18.3038C3.06867 17.3933 2.87892 16.326 3.05967 15.2903C3.09492 15.3113 3.15717 15.3495 3.20142 15.375L7.98042 18.135C8.22267 18.2768 8.52267 18.2768 8.76567 18.135L14.5999 14.766V17.0985C14.6014 17.1225 14.5902 17.1458 14.5714 17.1608L9.74067 19.95C7.58892 21.189 4.84092 20.4525 3.59667 18.3038H3.59592ZM2.33817 7.872C2.86317 6.96 3.69192 6.2625 4.67892 5.90025C4.67892 5.9415 4.67667 6.01425 4.67667 6.06525V11.586C4.67517 11.8665 4.82517 12.1268 5.06892 12.2655L10.9032 15.6338L8.88342 16.8C8.86317 16.8135 8.83767 16.8158 8.81517 16.806L3.98367 14.0145C1.83642 12.771 1.09992 10.0238 2.33742 7.87275L2.33817 7.872ZM18.9327 11.7338L13.0984 8.36475L15.1182 7.19925C15.1384 7.18575 15.1639 7.1835 15.1864 7.19325L20.0179 9.9825C22.1689 11.2253 22.9062 13.977 21.6634 16.128C21.1377 17.0385 20.3097 17.736 19.3234 18.099V12.4133C19.3257 12.1328 19.1764 11.8733 18.9334 11.7338H18.9327ZM20.9427 8.70825C20.9074 8.6865 20.8452 8.649 20.8009 8.6235L16.0219 5.8635C15.7797 5.72175 15.4797 5.72175 15.2367 5.8635L9.40242 9.2325V6.9C9.40092 6.876 9.41217 6.85275 9.43092 6.83775L14.2617 4.05075C16.4134 2.8095 19.1644 3.54825 20.4049 5.70075C20.9292 6.60975 21.1189 7.674 20.9412 8.70825H20.9427ZM8.30442 12.8655L6.28392 11.6993C6.26217 11.6888 6.24792 11.6678 6.24492 11.6438V6.0645C6.24642 3.5805 8.26167 1.5675 10.7457 1.569C11.7964 1.569 12.8134 1.938 13.6212 2.61C13.5844 2.6295 13.5214 2.66475 13.4794 2.69025L8.70042 5.45025C8.45592 5.589 8.30592 5.8485 8.30742 6.12975L8.30442 12.864V12.8655ZM9.40167 10.5L12.0004 8.99925L14.5992 10.4993V13.5L12.0004 15L9.40167 13.5V10.5Z" fill="black"/>
</g>
<defs>
<clipPath id="clip0_683_3566">
<rect width="24" height="24" fill="white"/>
</clipPath>
</defs>
</svg>
