<svg width="24" height="24" viewBox="0 0 24 24" fill="none" xmlns="http://www.w3.org/2000/svg">
<path fill-rule="evenodd" clip-rule="evenodd" d="M1.08225 9.58432L0.451132 12.6717C0.411687 12.8488 0.332795 13.0454 0.431408 13.2027C0.470853 13.2617 0.628635 13.3404 0.707525 13.301L3.37007 11.8852C3.70535 11.7082 3.7448 11.6688 4.13925 11.7672C4.31675 11.8065 4.49425 11.8458 4.69148 11.8852C4.82954 11.9048 4.92815 11.9441 5.02676 12.0425C5.08593 12.1015 5.10565 12.1605 5.14509 12.2194C6.01291 13.714 7.27515 14.8349 8.85294 15.5429C9.36574 15.7788 9.89824 15.9558 10.4307 16.0935C10.6477 16.1524 11.1999 16.2508 11.338 16.3884L11.6733 16.6834L9.24736 18.6696L6.84121 18.2763C6.70319 18.2566 6.56511 18.3353 6.54541 18.4729C6.52565 18.6106 6.62427 18.7286 6.76235 18.7482L9.28682 19.1612L6.62427 20.5771C6.50595 20.6361 6.44679 20.7934 6.50595 20.9114C6.56511 21.0294 6.72289 21.0687 6.84121 21.0097L9.85878 19.4169L11.4169 20.3805C11.5352 20.4591 11.693 20.4198 11.7521 20.3214C11.8311 20.2034 11.7719 20.0461 11.6535 19.9871L9.9574 18.9252L10.411 18.5909C10.8055 18.296 11.1999 18.001 11.5944 17.7256C12.048 17.3913 12.5213 17.0374 12.9947 16.7031C13.2116 16.5457 13.4286 16.5654 13.6849 16.5261L14.5133 16.4277H14.533C14.6514 16.4277 14.7697 16.4671 14.8683 16.5261C14.9077 16.5654 14.9472 16.6048 14.9669 16.6244C15.4205 16.9981 15.9333 17.1554 16.5053 17.1554C16.7222 17.1554 16.9589 17.1357 17.1759 17.0964C17.3533 17.0767 17.5309 17.0374 17.7084 17.0177L18.2606 16.9981L16.8208 21.108H13.9216C13.7836 21.108 13.6652 21.2064 13.6652 21.344C13.6652 21.4817 13.7836 21.58 13.9216 21.58H16.6434L14.5725 23.1729C14.4738 23.2515 14.4344 23.4089 14.5133 23.5072C14.5922 23.6055 14.7499 23.6252 14.8683 23.5465L17.1956 21.757C17.2153 21.7373 17.235 21.7373 17.235 21.7177L17.3533 21.58H19.6215C19.7595 21.58 19.8778 21.4817 19.8778 21.344C19.8778 21.2064 19.7595 21.108 19.6215 21.108H17.6887L18.8128 17.7256C18.9311 17.411 19.0298 17.0767 19.1481 16.7621C19.2664 16.3884 19.4834 16.3884 19.72 16.1524C19.8581 16.0148 19.9567 15.4642 19.9962 15.2872L20.1342 14.5793L20.154 14.5399C20.2131 14.363 20.5681 14.0483 20.7259 13.9106C22.7376 11.9245 23.6251 8.66009 23.6448 5.88731C23.6448 5.27769 23.4279 2.85889 23.1912 2.38693C23.1123 2.24927 22.9348 2.26894 22.8165 2.32793L20.2526 3.72415L20.0751 3.64549C16.9786 2.26894 14.2174 2.19028 11.1802 3.82247L10.8449 3.99946L10.6674 3.68482C10.5096 3.40951 9.40514 2.58358 9.10934 2.42626C7.25539 1.46267 5.46065 1.46267 3.60674 2.42626C1.4767 3.54716 0.0369569 6.61491 1.02308 8.9157C1.08225 9.17136 1.16114 9.32866 1.08225 9.58432Z" fill="#FFE629"/>
<path fill-rule="evenodd" clip-rule="evenodd" d="M22.4025 3.76352C22.8364 7.16557 22.225 10.9019 19.7005 13.4191C18.9708 14.1467 19.2469 13.7534 19.1285 14.5793C19.1088 14.7563 19.0299 15.4053 18.9116 15.5036C18.0044 16.3098 16.1504 16.3295 15.3024 15.6216C14.9276 15.3069 15.0657 15.2872 14.7501 15.3463C13.4682 15.5232 12.1468 15.5036 10.8451 15.1299C8.69532 14.5006 7.19639 13.5174 5.99331 11.6296C5.87499 11.4525 5.79608 11.2559 5.69751 11.0789C5.59889 10.9019 5.51998 10.8823 5.32274 10.8823C3.7844 10.8036 2.58133 10.2333 2.00937 8.73879C1.22047 6.69361 2.36438 4.33381 4.27746 3.40956C6.11164 2.52463 8.36001 2.91793 9.74062 4.4518C9.81948 4.55013 9.8984 4.62879 10.0167 4.74678C10.3717 5.10075 10.569 5.47439 11.1212 5.12042C13.547 3.58654 16.4463 3.29157 19.1088 4.4518C20.5091 5.06142 19.9174 5.15975 21.2586 4.41248L22.4025 3.76352ZM19.0891 6.51663C18.4383 8.10951 18.1424 8.75844 16.821 9.95804C15.1446 11.4919 11.9495 11.4132 11.2395 8.97475C11.2198 8.9158 11.2198 8.83709 11.1409 8.77814C10.9239 8.62078 10.6873 8.79779 10.5492 8.93545C10.4506 9.03375 10.3717 9.15175 10.352 9.30906C9.83924 12.8881 16.8407 14.186 19.6216 8.89609C19.8386 8.50278 20.5091 7.16557 20.1147 6.65431C19.8977 6.37898 19.2863 6.06434 19.0891 6.51663ZM19.6216 20.7345H18.2213L19.168 17.8633C19.2863 17.529 19.3849 17.2341 19.5033 16.8998C19.5822 16.6638 19.74 16.6835 19.9963 16.4278C20.2133 16.2115 20.3119 15.6609 20.3711 15.3659L20.5091 14.6973C20.5288 14.6383 20.9036 14.2843 20.9824 14.2057C23.073 12.1212 24 8.77814 24 5.92669C24 5.27774 23.7831 2.78028 23.507 2.24932C23.3294 1.91501 22.935 1.87568 22.5997 2.033L20.1935 3.3309C17.5113 2.13133 14.5332 1.60037 10.9437 3.52755C10.7662 3.21291 9.642 2.32798 9.22782 2.11166C7.23585 1.08908 5.30304 1.08908 3.37023 2.13133C1.06269 3.35056 -0.455944 6.6346 0.628797 9.1124C0.687963 9.25006 0.747134 9.34841 0.707686 9.50572L0.0765643 12.6128C-0.0023259 12.9865 -0.0614911 13.1831 0.116012 13.4387C0.293515 13.6944 0.668239 13.773 0.88519 13.655L3.54773 12.2392C3.7844 12.1212 3.74496 12.0818 4.04079 12.1605C4.2183 12.1998 4.41552 12.2392 4.61275 12.2785C4.77052 12.2982 4.73108 12.3178 4.79025 12.4358C6.95975 16.1918 10.8845 16.5458 11.0817 16.7031L9.1292 18.296L6.90059 17.942C6.54557 17.883 6.23001 18.119 6.17085 18.4533C6.11164 18.7876 6.34833 19.1219 6.70335 19.1613L8.10366 19.3776L6.44695 20.2428C6.13139 20.4002 6.01307 20.7935 6.17085 21.0884C6.32863 21.3834 6.72305 21.5014 7.01891 21.3441L9.83924 19.8495L11.2001 20.6951C11.4959 20.8721 11.8904 20.7935 12.0679 20.4985C12.2454 20.2035 12.1468 19.8102 11.8509 19.6332L10.6478 18.8859C11.2593 18.4337 13.054 17.1161 13.2315 16.9981C13.3104 16.9391 13.3104 16.9391 13.7443 16.8801L14.5529 16.7818C14.6712 16.7818 14.6712 16.8408 14.7501 16.8998C15.9532 17.8633 17.2943 17.3914 17.748 17.3914L16.5843 20.7148H13.9612C13.6062 20.7148 13.3301 20.9901 13.3301 21.3441C13.3301 21.6784 13.626 21.9734 13.9612 21.9734H15.539L14.3557 22.8779C14.0796 23.0943 14.0204 23.4876 14.2374 23.7629C14.4543 24.0382 14.8487 24.0775 15.1249 23.8612L17.4521 22.0717C17.4916 22.0324 17.531 22.0127 17.5507 21.9734H19.6216C19.9766 21.9734 20.2527 21.6981 20.2527 21.3441C20.2527 21.0098 19.9569 20.7345 19.6216 20.7345ZM1.45714 11.9639L1.69382 10.9019L2.3841 11.4525L1.45714 11.9639ZM4.80997 6.45764C5.40165 6.45764 5.8947 6.92962 5.8947 7.53919C5.8947 8.12916 5.42136 8.62078 4.80997 8.62078C4.2183 8.62078 3.72523 8.14881 3.72523 7.53919C3.72523 6.94927 4.2183 6.45764 4.80997 6.45764Z" fill="black"/>
</svg>
