<svg width="595" height="595" viewBox="0 0 595 595" fill="none" xmlns="http://www.w3.org/2000/svg">
<path fill-rule="evenodd" clip-rule="evenodd" d="M126.976 265.988L117.576 312.588C117.076 315.088 115.776 318.288 117.376 320.488C118.076 321.488 120.276 322.588 121.376 322.088L161.276 300.788C166.276 298.088 166.776 297.588 172.776 298.988C175.476 299.588 178.176 300.188 180.976 300.688C182.976 300.988 184.676 301.488 186.176 303.088C187.076 304.088 187.276 304.788 187.876 305.788C200.876 328.388 219.976 344.988 243.576 355.788C251.276 359.288 259.176 361.988 267.376 364.188C270.476 364.988 278.776 366.588 281.076 368.588L286.176 373.088L249.676 402.988L213.576 397.188C211.576 396.888 209.576 398.088 209.276 400.088C208.976 402.088 210.476 403.888 212.476 404.188L250.476 410.288L210.376 431.488C208.576 432.388 207.776 434.588 208.676 436.388C209.676 438.188 211.976 438.688 213.676 437.788L258.976 413.888L282.276 428.388C283.976 429.388 286.276 429.088 287.376 427.388C288.476 425.688 287.676 423.388 286.076 422.288L260.676 406.488L267.576 401.488C273.576 397.088 279.476 392.788 285.476 388.388C292.376 383.288 299.376 377.988 306.376 373.088C309.676 370.788 312.976 370.888 316.776 370.488L329.276 369.088H329.576C331.376 369.088 333.076 369.488 334.576 370.688C335.276 371.188 335.676 371.788 336.176 372.188C342.976 377.688 350.576 380.088 359.276 380.088C362.676 380.088 365.976 379.788 369.276 379.288C371.876 378.888 374.676 378.288 377.276 378.188L385.676 377.888L363.876 439.588H320.476C318.476 439.588 316.676 441.088 316.676 443.188C316.676 445.188 318.476 446.788 320.476 446.788H361.276L330.076 470.788C328.476 471.988 327.976 474.288 329.276 475.988C330.476 477.588 332.876 477.688 334.476 476.488L369.476 449.588C369.676 449.388 369.976 449.188 370.176 448.988L371.876 446.888H404.976C406.976 446.888 408.776 445.388 408.776 443.288C408.776 441.288 406.976 439.688 404.976 439.688H376.076L392.876 388.888C394.576 384.088 396.276 379.288 397.876 374.388C399.776 368.688 402.976 368.788 406.376 365.188C408.376 363.088 409.976 354.788 410.676 351.988L412.776 341.288L412.976 340.788C413.976 338.088 419.276 333.488 421.476 331.288C451.676 301.288 465.076 252.288 465.176 210.688C465.176 201.688 462.076 164.988 458.376 157.988C457.276 155.788 454.576 156.188 452.676 157.188L414.076 178.088L411.476 176.888C364.876 156.088 323.576 154.888 277.876 179.588L272.976 182.288L270.176 177.388C267.776 173.288 251.276 160.788 246.776 158.488C218.876 144.088 192.076 143.888 164.276 158.588C132.376 175.588 110.776 221.688 125.576 256.188C126.976 259.788 127.976 262.088 126.976 265.988Z" fill="#FFFF66"/>
<path fill-rule="evenodd" clip-rule="evenodd" d="M446.876 178.488C453.476 229.688 444.176 285.988 406.276 323.888C395.276 334.888 399.476 328.888 397.576 341.288C397.176 343.888 395.976 353.888 394.376 355.288C380.876 367.588 353.076 367.788 340.176 356.888C334.576 352.088 336.576 351.988 332.076 352.688C312.976 355.388 292.976 354.888 273.576 349.288C241.376 339.788 218.776 325.088 200.876 296.588C199.176 293.888 197.876 290.988 196.376 288.188C194.976 285.488 193.776 285.388 190.876 285.188C167.776 283.988 149.576 275.288 141.076 252.788C129.276 221.888 146.576 186.488 174.976 172.688C202.576 159.288 236.176 165.288 256.976 188.388C258.276 189.788 259.276 191.088 261.076 192.888C266.376 198.188 269.276 203.788 277.476 198.588C313.776 175.588 357.476 171.088 397.476 188.588C418.376 197.788 409.476 199.288 429.576 188.088L446.876 178.488ZM397.076 219.888C387.176 243.788 382.776 253.588 363.076 271.688C337.776 294.788 290.076 293.588 279.476 256.888C279.176 255.988 279.176 254.888 277.976 254.088C274.776 251.888 271.176 254.388 268.976 256.388C267.376 257.888 266.276 259.688 265.976 261.888C258.176 315.688 363.276 335.388 405.076 255.788C408.276 249.688 418.476 229.788 412.576 221.988C409.276 217.688 399.976 213.188 397.076 219.888ZM404.976 433.788H384.076L398.376 390.688C400.076 385.688 401.776 381.188 403.376 376.088C404.476 372.588 406.976 372.988 410.676 368.988C413.876 365.588 415.376 357.488 416.376 352.988L418.376 342.788C418.776 341.888 424.376 336.488 425.576 335.388C457.076 304.088 470.876 253.588 470.976 210.688C470.976 200.988 467.776 163.388 463.476 155.288C460.776 150.188 454.776 149.488 449.976 152.188L413.876 171.788C373.676 153.888 328.876 145.688 275.176 174.688C272.476 169.988 255.776 156.788 249.476 153.488C219.476 138.088 190.676 138.188 161.676 153.688C127.076 172.088 104.376 221.388 120.376 258.688C121.276 260.788 122.176 262.188 121.476 264.788L112.076 311.488C110.976 317.088 110.076 319.988 112.776 323.888C115.476 327.788 120.976 328.988 124.276 327.288L164.176 305.988C167.676 304.088 167.076 303.688 171.676 304.688C174.276 305.288 177.376 305.988 180.176 306.388C182.576 306.788 181.976 306.888 182.976 308.688C215.576 365.088 274.576 370.488 277.376 372.988L248.176 396.988L214.576 391.588C209.376 390.788 204.476 394.188 203.676 399.288C202.876 404.388 206.476 409.188 211.676 410.088L232.576 413.488L207.776 426.588C203.076 429.088 201.276 434.788 203.676 439.288C206.076 443.788 211.876 445.488 216.476 443.088L258.876 420.688L279.376 433.488C283.876 436.288 289.776 434.988 292.476 430.588C295.176 426.188 293.776 420.388 289.276 417.588L271.176 406.288C280.376 399.588 307.276 379.788 309.876 377.988C311.176 377.088 310.976 377.088 317.576 376.388L329.776 374.988C331.576 374.988 331.476 375.688 332.776 376.788C350.776 391.388 370.876 384.288 377.676 384.088L360.176 433.988H320.876C315.576 433.988 311.276 438.188 311.276 443.388C311.276 448.488 315.576 452.788 320.876 452.788H344.676L326.976 466.388C322.776 469.588 321.976 475.588 325.076 479.688C328.176 483.788 334.176 484.488 338.376 481.288L373.376 454.388C373.976 453.888 374.476 453.388 374.976 452.788H405.376C410.676 452.788 414.976 448.588 414.976 443.388C414.576 437.988 410.176 433.788 404.976 433.788ZM132.576 301.788L136.176 285.888L146.476 294.188L132.576 301.788ZM182.776 219.088C191.676 219.088 198.876 226.288 198.876 235.188C198.876 244.088 191.676 251.288 182.776 251.288C173.876 251.288 166.676 244.088 166.676 235.188C166.676 226.288 173.876 219.088 182.776 219.088Z" fill="black"/>
</svg>
